<?xml version="1.0" encoding="UTF-8" standalone="no"?>
<!-- Created with Inkscape (http://www.inkscape.org/) -->

<svg
   xmlns:dc="http://purl.org/dc/elements/1.1/"
   xmlns:cc="http://creativecommons.org/ns#"
   xmlns:rdf="http://www.w3.org/1999/02/22-rdf-syntax-ns#"
   xmlns:svg="http://www.w3.org/2000/svg"
   xmlns="http://www.w3.org/2000/svg"
   xmlns:sodipodi="http://sodipodi.sourceforge.net/DTD/sodipodi-0.dtd"
   xmlns:inkscape="http://www.inkscape.org/namespaces/inkscape"
   id="svg2988"
   version="1.1"
   inkscape:version="0.48.4 r9939"
   width="16.614485"
   height="15.874699">
  <metadata
     id="metadata2994">
    <rdf:RDF>
      <cc:Work
         rdf:about="">
        <dc:format>image/svg+xml</dc:format>
        <dc:type
           rdf:resource="http://purl.org/dc/dcmitype/StillImage" />
      </cc:Work>
    </rdf:RDF>
  </metadata>
  <defs
     id="defs2992" />
  <sodipodi:namedview
     pagecolor="#ffffff"
     bordercolor="#666666"
     borderopacity="1"
     objecttolerance="10"
     gridtolerance="10"
     guidetolerance="10"
     inkscape:pageopacity="0"
     inkscape:pageshadow="2"
     inkscape:window-width="640"
     inkscape:window-height="480"
     id="namedview2990" />
  <inkscape:clipboard
     id="clipboard2996"
     style="color:#000000;fill:#6e5145;fill-opacity:1;fill-rule:nonzero;stroke:none;marker:none;visibility:visible;display:inline;overflow:visible;enable-background:accumulate"
     min="22.266752,-9.6802707e-07"
     max="38.881237,15.874697" />
  <path
     inkscape:connector-curvature="0"
     d="m 15.565964,5.5321081 c -0.210986,0 -0.398469,0.049675 -0.579009,0.097214 L 9.2134143,7.2782181 9.3565644,1.1574856 C 9.3565644,0.30339262 8.7914422,0 8.3075096,0 7.823577,0 7.258989,0.30339262 7.258989,1.1713733 L 7.4016049,7.2782181 1.7429052,5.6592339 1.6285988,5.6293219 C 1.4475247,5.5817833 1.2600408,5.5321081 1.0495889,5.5321081 0.43212083,5.5321081 0,5.9855946 0,6.6340429 0,6.8893627 0.09080413,7.5020235 0.91605343,7.6702783 L 6.8124463,8.9815967 3.0285848,14.050604 c -0.1281941,0.193359 -0.2649344,0.428916 -0.2649344,0.773971 0,0.569396 0.5047641,1.050123 1.102469,1.050123 0.5047641,0 0.730172,-0.307131 0.8797317,-0.510639 l 3.5616585,-5.341954 3.4964934,5.251684 0.0657,0.09027 c 0.149026,0.203508 0.374434,0.510639 0.878664,0.510639 0.598239,0 1.103537,-0.480727 1.103537,-1.050123 0,-0.345055 -0.137275,-0.580612 -0.285232,-0.802281 L 9.803107,8.9815967 15.688283,7.672949 c 0.835932,-0.1709255 0.926202,-0.7835863 0.926202,-1.0389061 0,-0.6484483 -0.431053,-1.1019348 -1.048521,-1.1019348"
     style="fill:#6e5145;fill-opacity:1;fill-rule:nonzero;stroke:none"
     id="path616" />
</svg>