<svg xmlns:svg="http://www.w3.org/2000/svg" xmlns="http://www.w3.org/2000/svg" version="1.1" id="svg5817" x="0" y="0" width="524.4" height="744.1" viewBox="0 0 524.4 744.1" enable-background="new 0 0 524.41 744.094" xml:space="preserve"><defs/><g id="layer1" transform="translate(0,-308.26768)"><g id="g6512" transform="translate(-85.714286,165.71429)"><g><path fill="#555555" d="M224.1 515.1c-0.6-0.6-1.1-1.2-1.6-1.7 -5.1 9.8-9.6 20.2-13.3 31.3 -21.2 64.7 33 106.1 12.1 140.4 -28.3 46.5-105.1 42.4-105.1 42.4s30.8 12.1 55.6 12.1c31.3 0 51.5-12.1 51.5-12.1s-15.2 16.2-36.4 22.2c-20.5 5.9-54.5 19.2-54.5 19.2s112.1 9.1 169.7-36.4c41.1-32.4-7.3-112.7 4.5-199.8 -0.9-0.6-1.8-1.2-2.8-1.8C279.8 517.7 244.2 534.9 224.1 515.1z"/><g><linearGradient id="SVGID_1_" gradientUnits="userSpaceOnUse" x1="159.9" y1="30.3" x2="217.4" y2="123.2" gradientTransform="matrix(-1 0 0 -1 684.9447 772.6293)"><stop offset="0" stop-color="#AB0000"/><stop offset="1" stop-color="#7A1010"/></linearGradient><path fill="url(#SVGID_1_)" d="M527.9 736c26.8 7.1 48.5 3 48.5 3s-73.4-8.2-88.9-62.6c-10.8-38.1 11.1-50.5-2-116.2 -3.2-16-8.2-30.5-14.3-43.4 -11.2 19.8 11.8 50.2-11.9 60.5 -17.8 7.8-31-7.7-46.6-17 7.8 59.9-19.1 106.4 2.1 142.3 37.2 63.2 145.5 77.8 145.5 77.8s-30-13.3-46.5-30.3c-15.4-15.8-20.2-27.3-20.2-27.3S497.6 728 527.9 736z"/><linearGradient id="SVGID_2_" gradientUnits="userSpaceOnUse" x1="128.2" y1="49.9" x2="185.8" y2="142.8" gradientTransform="matrix(-1 0 0 -1 684.9447 772.6293)"><stop offset="0" stop-color="#AB0000"/><stop offset="1" stop-color="#7A1010"/></linearGradient><path fill="url(#SVGID_2_)" d="M459.3 577.4c23.7-10.4 0.7-40.7 11.9-60.5 -19.3-41.1-49.1-66.4-64.5-71.8 -20.2-7.1-57.6-2-57.6-2 43.2 43.9 59.1 82.9 63.6 117.3C428.3 569.7 441.5 585.2 459.3 577.4z"/><radialGradient id="SVGID_3_" cx="943.6" cy="1201.7" r="1882.1" gradientUnits="userSpaceOnUse"><stop offset="0" stop-color="#AB0000"/><stop offset="1" stop-color="#911313"/></radialGradient><path fill="url(#SVGID_3_)" d="M530.3 427.8c6.9-26.1 38.7-36 36.8-63.2 -1.9-27.2-52.9-14.9-64.3-40.9 -11.4-25.9 38.7-52.5 20-73.8 -18.7-21.3-55 27.7-78.2 12.3s-10.5-50-38-55.9c-27.5-5.9-17.9 27-46 29.5 -28 2.5-52.6-26.4-78.8-16.3s5.8 50-15.8 67.7c-21.6 17.8-44.5-13.6-58.3 9.8 -13.8 23.3 7.5 28 3.2 54.8 -4.4 26.7-44.9 42.9-40 69.6 4.9 26.7 56.6 18.5 68.6 43 11.6 23.8-32.5 30.5-16.8 48.9 0.5 0.6 1 1.2 1.6 1.7 20.1 19.8 55.6 2.6 79.7 15.9 1 0.6 1.9 1.2 2.8 1.8 19.6 14.2 1.2 44.9 26.8 48.9 26.7 4.2 27.8-23.7 55.8-27.3 8.8-1.1 16.4 1.8 23.5 6.1 15.6 9.3 28.8 24.8 46.6 17 23.7-10.4 0.7-40.7 11.9-60.5 1-1.8 2.3-3.5 3.9-5 19.6-19.3 43.3-8 58.3-31.4C548.4 457 523.3 453.9 530.3 427.8z"/></g></g><path id="path6349" fill="#FFFFFF" d="M275.7 235c-0.3-0.6 0.2-1.7 1.3-3 1.1-1.3 2.9-2.9 5-4.8 0.9-0.9 2-2 3.8-3.2 1.5-0.9 3.3-1.5 5.2-1.5 2.4 0 4.6 0.4 6.3 0.7 2.4 0.4 4.9 1 7.2 1.8 1.2 0.4 2.3 0.8 3.4 1.2 4.2 1.6 8 3.3 11.3 5.1 7.6 4.2 12.2 7.9 11.5 9.6l0 0 0 0c0 0 0 0 0 0s0 0 0 0l0 0 0 0c-0.7 1.6-6.6 0.8-14.8-1.7 -3.4-1-7.2-2.2-11.3-3.6 -1.1-0.3-2.1-0.7-3.2-1 -2.1-0.7-4.1-1.3-6-1.8 -2.1-0.5-3.6-1-4.8-1.1 -0.2-0.1-0.5-0.2-0.7-0.1 -1.1 0.4-2.5 1.3-4 2 -2.9 1.3-5.3 2-7.1 2.3C277.2 235.9 276.1 235.7 275.7 235L275.7 235z"/><path id="path6353" fill="#FFFFFF" d="M352.9 245c0.2-0.8 1.7-1.4 4.2-1.7 1.3-0.1 2.7-0.2 4.4-0.3 1.7-0.1 3.5-0.2 5.5-0.4 2.7-0.3 5.6-0.6 8.1-1.8 1.7-0.7 3.3-1.8 4.9-3.2 0.3-0.3 0.6-0.5 0.9-0.8 2.5-2.3 4.6-5.2 6.7-7.9 3-4.5 5.8-8.3 8.1-10.7 2.3-2.5 4.1-3.7 5-3.3l0 0 0 0c0 0 0 0 0 0s0 0 0 0l0 0 0 0c0.9 0.5 0.8 2.6-0.2 5.9 -1 3.3-2.8 7.8-5.2 12.9 -1.8 3.2-4.2 6.8-7.5 10.2 -0.4 0.4-0.8 0.8-1.2 1.2 -2.4 2.1-5.2 3.8-8.2 4.8 -4.4 1.4-8.4 1.4-11.6 0.9 -2.3-0.3-4.3-0.7-6.1-1.3 -1.7-0.5-3.2-1.1-4.4-1.6C353.9 247 352.7 245.9 352.9 245L352.9 245z"/><path id="path6357" fill="#FF7D7D" d="M273.6 448.6c0.3-0.2 1.1 0.8 2.5 2.7s3.3 4.6 6 8 6.2 7.4 10.6 11.6c4.4 4.2 9.8 8.7 16.1 12.9l0 0c6 4 13 7.7 20.7 10.8s16.4 5.6 25.6 7.2c7.8 1.3 16 1.9 24.4 1.5 8.4-0.3 17-1.6 25.6-3.9 4-1.1 7.9-2.4 11.8-4 12.7-5.2 24-12.7 33.1-21.6 6.2-6 11.6-12.4 16.1-19 4.5-6.6 8.1-13.3 10.9-20 2.6-6.4 4.5-12.8 5.7-18.9s1.9-11.8 2.1-17.2c0.3-5.6 0.1-10.7-0.3-15.3s-0.9-8.4-1.4-11.6c-1.6-6.9-2.2-10.9-1.6-11.1l0 0 0 0c0 0 0 0 0 0s0 0 0 0l0 0 0 0c0.6-0.2 2.3 3.4 5 10.2 1.1 3.2 2.1 7.2 3 11.9s1.5 10.1 1.7 16.1c0.2 5.6-0.1 11.8-1.1 18.4 -1 6.6-2.6 13.5-5.2 20.6 -2.7 7.4-6.4 14.8-11.1 22.1 -4.7 7.2-10.4 14.3-16.9 20.8 -9.9 9.9-22.2 18.2-36.1 23.9 -4.3 1.7-8.6 3.2-12.9 4.4 -9.3 2.5-18.8 3.8-27.9 4 -9.1 0.2-18-0.6-26.3-2.2 -9.9-1.9-19-4.9-27.2-8.6 -8.2-3.7-15.4-8-21.6-12.6l0 0c-6.5-4.9-11.9-10-16.1-14.8 -4.2-4.9-7.4-9.4-9.7-13.3 -2.3-3.9-3.7-7.1-4.6-9.3C273.5 450 273.3 448.8 273.6 448.6L273.6 448.6z"/><path id="path6361" fill="#FFFFFF" d="M212.9 314.3c-0.3 0-0.7-0.2-1.1-0.6 -0.4-0.4-0.7-1-1.1-1.9 -0.3-0.8-0.6-1.9-0.8-3.2 -0.1-1.3-0.1-2.9 0.2-4.7l0 0c0.2-1.2 0.7-2.4 1.5-3.6 0.8-1.2 1.9-2.3 3.4-3.3 2.5-1.3 5.1-2 7.5-2 2.5-0.1 4.9 0 7.1 0.1 1.7 0.1 3.3 0.5 4.8 0.9 1.2 0.4 2.4 0.8 3.4 1.2 2.5 0.9 4.6 1.8 6.4 2.3 2.2 0.6 4.5 0.7 6.4 0.5 1.5-0.1 2.9-0.5 4.2-0.9 1.3-0.4 2.4-0.7 3.4-1 2-0.6 3.4-0.8 3.9-0.2 0.5 0.6 0.1 2-1.3 3.8 -0.7 0.9-1.7 1.9-3 3 -1.3 1-3 2-5 2.9 -2.9 1.1-6.5 1.7-10.3 1.1 -2.9-0.4-5.6-1.3-8-2.2 -1-0.3-1.9-0.6-2.8-0.9 -1-0.3-1.9-0.5-2.7-0.6 -2.4-0.2-4.5-0.5-6.3-0.6 -1.7 0-2.9-0.1-3.6 0.2 -0.7 0-1.5 0.8-2.1 1.7l0 0c-0.6 0.9-1 1.9-1.3 2.9 -0.3 1-0.6 1.9-0.9 2.7C214.1 313.3 213.6 314.3 212.9 314.3L212.9 314.3z"/><path id="path6365" fill="#FF7D7D" d="M518.6 260.7c-0.4 0.1-0.8 0-1.4-0.4 -0.6-0.3-1.3-0.8-2.1-1.1 -0.6-0.2-1.4-0.3-2.1-0.3l0 0c-0.7 0-1.5 0.2-2.5 0.5 -0.9 0.3-2 0.8-3.2 1.4 -2.4 1.2-4.9 2.7-7.6 4.7 -2.7 2-5.5 4.3-8.5 6.8 -0.1 0.1-0.3 0.2-0.4 0.3 -4.2 3.5-8.9 5.8-13.3 7.3 -4.4 1.5-8.6 2-12.2 2l0 0c-3.8 0.1-6.9-0.5-9.1-1.1l0 0c-1.1-0.3-2-0.7-2.5-1.1l0 0c-0.3-0.2-0.5-0.4-0.6-0.6l0 0 0 0c-0.1-0.1-0.1-0.2-0.1-0.3l0 0c0-0.1 0-0.2 0-0.3 0 0 0 0 0 0l0 0 0 0 0 0 0 0c0 0 0 0 0 0 0 0 0-0.1 0.1-0.2l0 0c0.1-0.1 0.1-0.2 0.2-0.3l0 0 0 0c0.2-0.2 0.4-0.3 0.7-0.5l0 0c0.6-0.3 1.4-0.6 2.4-0.8l0 0c2-0.5 4.7-1.1 8-2l0 0c3-0.8 6.4-1.9 9.8-3.4 3.5-1.6 7-3.6 10.2-6.3 0.1-0.1 0.2-0.2 0.3-0.3 3.1-2.7 6.4-5.2 9.8-7.2 3.4-2 6.8-3.5 10-4.3 1.6-0.5 3.4-0.8 5.1-0.8s3.3 0.3 4.7 0.8l0 0c1.7 0.6 2.9 1.7 3.7 2.7 1 1.4 1.2 2.5 1.2 3.3C519.2 260.1 519 260.6 518.6 260.7L518.6 260.7z"/><path id="path6369" fill="#650000" d="M474.6 351c-0.3 0.2-1.1-0.8-2.5-2.7 -1.4-1.9-3.3-4.6-6-8 -2.7-3.4-6.2-7.4-10.6-11.6 -4.4-4.2-9.8-8.7-16.1-12.9l0 0c-6-4-12.9-7.7-20.7-10.8 -7.8-3.1-16.4-5.6-25.6-7.2 -7.8-1.3-16-1.9-24.4-1.5 -8.4 0.3-17 1.6-25.6 3.9 -4 1.1-7.9 2.4-11.8 4 -12.7 5.2-24 12.7-33.1 21.6 -6.2 6-11.6 12.4-16.1 19 -4.5 6.6-8.1 13.3-10.9 20 -2.6 6.4-4.5 12.8-5.7 18.9 -1.2 6.1-1.9 11.8-2.1 17.2 -0.3 5.6-0.1 10.7 0.3 15.3 0.4 4.5 0.9 8.4 1.4 11.6 1.6 6.9 2.2 10.9 1.6 11.1l0 0 0 0c0 0 0 0 0 0s0 0 0 0l0 0 0 0c-0.6 0.2-2.3-3.4-5-10.2 -1.1-3.2-2.1-7.2-3-11.9 -0.9-4.7-1.5-10.1-1.7-16.1 -0.2-5.6 0.1-11.8 1.1-18.4 1-6.6 2.7-13.5 5.2-20.6 2.7-7.4 6.4-14.8 11.1-22.1 4.7-7.2 10.4-14.3 16.9-20.8 9.9-9.9 22.2-18.2 36.1-23.9 4.3-1.7 8.6-3.2 12.9-4.4 9.3-2.5 18.8-3.8 27.9-4s18 0.6 26.3 2.2c9.9 1.9 19 4.9 27.2 8.6s15.4 8 21.6 12.6l0 0c6.5 4.9 11.9 10 16.1 14.8 4.2 4.9 7.4 9.4 9.7 13.3 2.3 3.9 3.8 7.1 4.6 9.3C474.7 349.6 474.9 350.8 474.6 351L474.6 351z"/><path id="path6373" fill="#FF7D7D" d="M275.7 235c-0.3-0.6 0.2-1.7 1.3-3 1.1-1.3 2.9-2.9 5-4.8 0.9-0.9 2-2 3.8-3.2 1.5-0.9 3.3-1.5 5.2-1.5 2.4 0 4.6 0.4 6.3 0.7 2.4 0.4 4.9 1 7.2 1.8 1.2 0.4 2.3 0.8 3.4 1.2 4.2 1.6 8 3.3 11.3 5.1 7.6 4.2 12.2 7.9 11.5 9.6l0 0 0 0c0 0 0 0 0 0s0 0 0 0l0 0 0 0c-0.7 1.6-6.6 0.8-14.8-1.7 -3.4-1-7.2-2.2-11.3-3.6 -1.1-0.3-2.1-0.7-3.2-1 -2.1-0.7-4.1-1.3-6-1.8 -2.1-0.5-3.6-1-4.8-1.1 -0.2-0.1-0.5-0.2-0.7-0.1 -1.1 0.4-2.5 1.3-4 2 -2.9 1.3-5.3 2-7.1 2.3C277.2 235.9 276.1 235.7 275.7 235L275.7 235z"/><path id="path6375" fill="#FF7D7D" d="M352.9 245c0.2-0.8 1.7-1.4 4.2-1.7 1.3-0.1 2.7-0.2 4.4-0.3 1.7-0.1 3.5-0.2 5.5-0.4 2.7-0.3 5.6-0.6 8.1-1.8 1.7-0.7 3.3-1.8 4.9-3.2 0.3-0.3 0.6-0.5 0.9-0.8 2.5-2.3 4.6-5.2 6.7-7.9 3-4.5 5.8-8.3 8.1-10.7 2.3-2.5 4.1-3.7 5-3.3l0 0 0 0c0 0 0 0 0 0s0 0 0 0l0 0 0 0c0.9 0.5 0.8 2.6-0.2 5.9 -1 3.3-2.8 7.8-5.2 12.9 -1.8 3.2-4.2 6.8-7.5 10.2 -0.4 0.4-0.8 0.8-1.2 1.2 -2.4 2.1-5.2 3.8-8.2 4.8 -4.4 1.4-8.4 1.4-11.6 0.9 -2.3-0.3-4.3-0.7-6.1-1.3 -1.7-0.5-3.2-1.1-4.4-1.6C353.9 247 352.7 245.9 352.9 245L352.9 245z"/><path id="path6377" fill="#FF7D7D" d="M212.9 314.3c-0.3 0-0.7-0.2-1.1-0.6 -0.4-0.4-0.7-1-1.1-1.9 -0.3-0.8-0.6-1.9-0.8-3.2 -0.1-1.3-0.1-2.9 0.2-4.7l0 0c0.2-1.2 0.7-2.4 1.5-3.6 0.8-1.2 1.9-2.3 3.4-3.3 2.5-1.3 5.1-2 7.5-2 2.5-0.1 4.9 0 7.1 0.1 1.7 0.1 3.3 0.5 4.8 0.9 1.2 0.4 2.4 0.8 3.4 1.2 2.5 0.9 4.6 1.8 6.4 2.3 2.2 0.6 4.5 0.7 6.4 0.5 1.5-0.1 2.9-0.5 4.2-0.9 1.3-0.4 2.4-0.7 3.4-1 2-0.6 3.4-0.8 3.9-0.2 0.5 0.6 0.1 2-1.3 3.8 -0.7 0.9-1.7 1.9-3 3 -1.3 1-3 2-5 2.9 -2.9 1.1-6.5 1.7-10.3 1.1 -2.9-0.4-5.6-1.3-8-2.2 -1-0.3-1.9-0.6-2.8-0.9 -1-0.3-1.9-0.5-2.7-0.6 -2.4-0.2-4.5-0.5-6.3-0.6 -1.7 0-2.9-0.1-3.6 0.2 -0.7 0-1.5 0.8-2.1 1.7l0 0c-0.6 0.9-1 1.9-1.3 2.9 -0.3 1-0.6 1.9-0.9 2.7C214.1 313.3 213.6 314.3 212.9 314.3L212.9 314.3z"/><path id="path6379" fill="#650000" d="M226.3 507.9c0.4 0.1 0.6 0.5 1 1 0.2 0.3 0.4 0.5 0.7 0.8s0.6 0.5 1 0.8c0.4 0.3 1 0.6 1.7 0.8 0.7 0.3 1.4 0.5 2.3 0.8 1.8 0.5 3.9 1 6.3 1.3 2.4 0.3 5.1 0.6 8 0.8 5.3 0.4 11.2 0.6 17.5 0.5 2.1 0 4.2-0.1 6.2-0.1 2.7-0.1 5.2-0.3 7.7-0.6 5.9-0.8 11.4 0.1 16 1.7 5.1 1.9 9.2 4.4 12.4 6.9 6.4 6.4 9.8 10.8 8.9 11.8l0 0 0 0 0 0 0 0 0 0 0 0c0 0 0 0 0 0s0 0 0 0l0 0 0 0 0 0 0 0 0 0 0 0c-0.9 1-5.9-1.5-13-6.1 -3.1-1.5-6.8-3.1-10.9-4 -3.7-0.9-7.9-1.3-11.9-0.5 -2.9 0.5-5.8 0.8-8.8 0.9 -2.3 0.1-4.5 0.1-6.7 0.1 -6.7-0.1-13-0.8-18.6-1.8 -3.1-0.6-6-1.3-8.7-2.2 -2.7-0.9-5-2-6.9-3.2 -1-0.6-1.9-1.3-2.7-2 -0.8-0.7-1.4-1.6-1.9-2.3 -0.5-0.8-0.7-1.6-0.8-2.3s0-1.3 0.1-1.7 0.3-0.7 0.5-0.9C226 507.9 226.2 507.9 226.3 507.9L226.3 507.9z"/><path id="path6383" fill="#650000" d="M322 569.3c0.2-0.2 0.7-0.1 1.3 0.2 0.6 0.3 1.4 0.8 2.4 1.4 1 0.6 2.2 1.4 3.5 2.1s2.9 1.4 4.6 1.6c1.3 0.2 2.7 0.2 4.1-0.1 1.4-0.3 2.8-0.9 4.4-1.7 1.8-0.9 3.6-2.1 5.5-3.6 1.9-1.4 3.8-3.1 5.8-4.9 4.8-4.2 9.8-8.9 15.4-13.7 0.1-0.1 0.2-0.1 0.3-0.2 3.1-2.7 6.7-4.8 10.5-6.1 3.7-1.3 7.5-1.7 11.1-1.6 4 0.2 7.7 1 11 2.2 3.3 1.1 6.2 2.6 8.8 4.1 5.6 4.6 10 8.4 12.9 11.3 2.9 2.9 4.2 4.7 3.7 5.4l0 0 0 0 0 0 0 0 0 0 0 0 0 0 0 0 0 0 0 0c0 0 0 0 0 0s0 0 0 0l0 0 0 0 0 0 0 0 0 0 0 0 0 0 0 0 0 0 0 0c-0.5 0.6-2.8-0.1-6.4-1.9s-8.5-4.6-14.3-8.1c-2.4-1-4.9-1.9-7.6-2.5s-5.5-1-8.3-0.9c-2.6 0.1-5.2 0.5-7.7 1.4 -2.5 0.9-5 2.5-7.3 4.4 -0.1 0.1-0.1 0.1-0.2 0.2 -5.4 4.7-10.7 9.4-16 13.5 -2.2 1.7-4.4 3.4-6.8 4.9 -2.3 1.5-4.7 2.7-7.2 3.7 -2.2 0.9-4.5 1.4-6.9 1.6 -2.5 0.1-4.8-0.3-6.7-1.1 -2.5-1-4.3-2.4-5.7-3.7 -1.4-1.3-2.4-2.6-3.1-3.7s-1.1-2-1.3-2.7C321.8 570 321.8 569.5 322 569.3L322 569.3z"/><path id="path6387" fill="#FF7D7D" d="M178.6 418.6c-0.1 0-0.2 0-0.3-0.1l0 0c-0.1 0-0.2-0.1-0.2-0.1l0 0 0 0 0 0c-0.1-0.1-0.3-0.3-0.4-0.5l0 0 0 0c-0.2-0.4-0.4-1-0.5-1.8l0 0c-0.2-1.5-0.1-3.5 0.5-6l0 0c0.6-2.4 1.7-5.1 3.5-7.9s4.3-5.5 7.5-7.8c0.8-0.6 1.7-1.2 2.5-2 2.1-1.8 4-3.8 5.8-5.8s3.4-3.9 5-5.7c4-5.2 7.3-8.2 8.7-7.5l0 0 0 0 0 0 0 0 0 0 0 0 0 0 0 0 0 0c0 0 0 0 0 0s0 0 0 0l0 0 0 0 0 0 0 0 0 0 0 0 0 0 0 0 0 0c1.4 0.7 0.6 5.2-2 11.6 -1 2.3-2.4 4.8-4.2 7.3s-4.1 5.2-6.9 7.6c-1.1 0.9-2.2 1.8-3.4 2.6 -2.3 1.5-4.4 3.3-6.1 5.1s-3.1 3.6-4.3 5.2l0 0c-1.2 1.7-2.2 3.1-3 4.1l0 0c-0.4 0.5-0.8 0.9-1.2 1.2l0 0 0 0c-0.2 0.1-0.4 0.2-0.5 0.3l0 0 0 0 0 0c-0.1 0-0.2 0.1-0.3 0.1l0 0C178.8 418.6 178.7 418.6 178.6 418.6L178.6 418.6z"/><path id="path6391" fill="#FF7D7D" d="M560 364.3c-0.9 1-2.8 1-5 0.3 -2.2-0.6-4.8-1.8-7.6-3.2 -1.5-0.8-2.9-1.6-4.1-2.4l0 0c-1.7-1.1-3.1-2.1-4.1-3.2l0 0c-0.5-0.5-0.8-1-1.1-1.5l0 0c-0.1-0.2-0.2-0.5-0.2-0.7l0 0 0 0c0-0.1 0-0.2 0-0.4l0 0 0 0 0 0c0-0.4 0-0.4 0-0.4l0 0 0 0 0 0 0 0 0 0 0 0 0 0 0 0c0 0 0 0 0.1-0.4l0 0 0 0 0 0c0-0.1 0.1-0.2 0.2-0.3l0 0 0 0c0.1-0.2 0.3-0.4 0.5-0.6l0 0c0.4-0.4 1.1-0.7 1.8-0.9l0 0c1.5-0.5 3.7-0.5 6.1 0l0 0c1.8 0.4 3.6 1 5.5 2 1.7 0.9 3.2 2 4.5 3.1s2.2 2.3 2.9 3.4 1.1 2.2 1.2 3.1C560.7 363.1 560.5 363.8 560 364.3L560 364.3z"/><path id="path6383-6" fill="#650000" d="M466.5 520.5c-0.4-0.2-0.5-1-0.3-2.2 0.2-1.2 0.7-2.9 1.6-5s2.1-4.5 3.9-7.1c1.7-2.6 4-5.4 6.9-8.2 2.1-1.9 4.5-3.8 7.1-5.4 2.7-1.6 5.7-3 8.8-4.1 3-1 6-1.7 9-2.4 1.8-0.4 3.5-0.7 5.1-1.1 4.1-1 7.7-2.1 10.3-3.9 3-2 5.4-4.5 7.1-7l0 0c1.8-2.6 3-5.3 3.8-7.7l0 0c0.9-2.6 1.4-4.9 1.9-6.6l0 0c0.2-0.9 0.4-1.6 0.7-2.1l0 0c0.1-0.3 0.2-0.5 0.4-0.6l0 0 0 0c0.1-0.1 0.1-0.1 0.2-0.2l0 0 0 0c0.1 0 0.2-0.1 0.2-0.1 0 0 0 0 0 0l0 0 0 0 0 0 0 0 0 0 0 0 0 0 0 0 0 0 0 0 0 0 0 0 0 0 0 0 0 0 0 0 0 0 0 0 0 0 0 0 0 0 0 0c0 0 0 0 0 0 0 0 0.1 0 0.2 0l0 0 0 0c0.1 0 0.2 0.1 0.2 0.1l0 0 0 0c0.2 0.1 0.3 0.3 0.5 0.5l0 0c0.3 0.5 0.6 1.2 0.9 2.2l0 0c0.5 1.8 0.9 4.4 0.7 7.8l0 0c-0.2 3.1-0.9 6.7-2.8 10.5l0 0c-1.8 3.8-4.6 7.5-8.5 10.6 -2 1.5-4.2 2.8-6.5 3.8s-4.7 1.7-7.1 2.3c-1.8 0.4-3.6 0.8-5.3 1.2 -2.9 0.6-5.6 1.2-8.1 2 -5.2 1.6-9.8 4-13.5 6.7 -2.7 1.9-5 4.1-7 6 -2 2-3.7 3.9-5.1 5.4s-2.6 2.8-3.5 3.6C467.6 520.4 466.9 520.7 466.5 520.5L466.5 520.5z"/><path id="path6416" fill="#650000" d="M422.2 560.7c0.3-0.4 1-0.5 2-0.3 1.1 0.2 2.5 0.6 4.3 1.2s3.9 1.3 6.3 2.1c2.4 0.8 5 1.5 7.9 2.1 1.8 0.3 3.7 0.6 5.5 0.6 1.8 0 3.5-0.1 5-0.7 1.3-0.4 2.5-1.3 3.5-2.4 0.4-0.5 0.8-1 1.1-1.6 1.3-2.1 1.7-5 1.8-7.9 -0.1-16.2 1.1-27.9 3.3-28.1l0 0 0 0c0 0 0 0 0 0s0 0 0 0l0 0 0 0c2.2-0.1 4.6 11.5 6.1 27.7 0.3 4-0.2 8.6-2.5 13 -0.7 1.3-1.5 2.4-2.5 3.5 -2.2 2.4-4.9 4.1-7.9 5.1 -3.1 0.9-6 1-8.6 0.8 -2.7-0.2-5.1-0.8-7.2-1.6 -3.3-1.1-6.2-2.5-8.6-4 -2.4-1.4-4.3-2.9-5.8-4.1 -1.5-1.3-2.6-2.4-3.2-3.3C422.1 561.8 421.9 561.1 422.2 560.7L422.2 560.7z"/><path id="path6420" fill="#650000" d="M525 435.7c-0.9-0.1-1.5-2-1.8-5.4 -0.1-1.7-0.2-3.7-0.1-6 0.1-2.3 0.3-4.9 0.8-7.8 0.6-3.6 1.7-7.7 4-11.9 1.7-2.9 3.8-5.4 6-7.7 0.4-0.4 0.8-0.8 1.1-1.1 3.9-3.7 7.6-6.9 10.9-9.8l0 0c2.9-2.6 5.5-4.7 7.5-6.7 2.1-1.9 3.6-3.7 4.8-5l0 0c0.4-0.5 0.8-0.9 1.1-1.2s0.6-0.6 0.8-0.9l0 0c0.2-0.2 0.4-0.4 0.6-0.5l0 0 0 0c0.1 0 0.2-0.1 0.3-0.1l0 0 0 0c0.2-0.1 0.3-0.1 0.3-0.1 0 0 0 0 0 0s0 0 0 0c0 0 0 0 0.3 0l0 0 0 0c0.1 0 0.2 0.1 0.3 0.2l0 0 0 0c0.2 0.2 0.4 0.5 0.5 0.9l0 0c0.1 0.4 0.2 1 0.2 1.7 0 0.7-0.1 1.4-0.3 2.2l0 0c-0.5 2.1-1.5 4.7-3.3 7.6 -1.7 2.8-4.1 5.8-6.8 8.7l0 0c-3.1 3.4-6.7 6.9-10.3 10.5 -0.3 0.3-0.7 0.7-1 1 -1.9 2-3.6 3.8-4.8 5.7 -1.8 2.7-3 5.9-4.1 8.9 -0.8 2.5-1.6 4.8-2.2 6.9 -0.7 2.1-1.3 4-1.9 5.5C527 434.2 525.9 435.9 525 435.7L525 435.7z"/><path id="path6424" fill="#650000" d="M184.3 434.3c0.4-1.5 6.1-1.3 14.7 0.1l0 0c6.9 1.1 15.6 2.9 25 5.1 0.5 0.1 1 0.2 1.4 0.3 3 0.8 5.9 1.9 8.5 3.4 2.6 1.5 5 3.3 7 5.4l0 0 0 0c1.9 2 3.3 4.3 4.3 6.5 1 2.2 1.6 4.4 1.9 6.4l0 0c0.3 2.2 0.3 4.2 0.2 6 -0.2 1.7-0.5 3.2-0.9 4.4l0 0c-0.4 1.3-0.9 2.3-1.4 3l0 0c-0.2 0.3-0.5 0.6-0.7 0.7l0 0 0 0c-0.1 0.1-0.2 0.1-0.3 0.2l0 0 0 0c-0.2 0-0.2 0-0.3 0l0 0c0 0 0 0 0 0l0 0 0 0 0 0 0 0 0 0 0 0 0 0 0 0 0 0 0 0 0 0 0 0 0 0 0 0 0 0 0 0 0 0 0 0 0 0 0 0 0 0 0 0c0 0 0 0 0 0l0 0c0 0-0.1-0.1-0.2-0.1l0 0 0 0c-0.1-0.1-0.2-0.2-0.2-0.3l0 0 0 0c-0.1-0.2-0.3-0.5-0.4-0.9l0 0c-0.2-0.7-0.4-1.7-0.6-2.9l0 0c-0.4-2.2-0.9-5.1-2.1-8.3l0 0c-1.1-2.8-2.9-5.8-5.5-8.1l0 0 0 0c-1.4-1.3-3.1-2.4-5-3.3s-4.1-1.7-6.5-2.3c-0.4-0.1-0.8-0.2-1.1-0.3 -9.7-2.2-18.2-5-24.7-7.5l0 0C188.9 438.5 183.9 435.8 184.3 434.3L184.3 434.3z"/></g></g></svg>