<?xml version="1.0" encoding="UTF-8" standalone="no"?>
<!-- Created with Inkscape (http://www.inkscape.org/) -->

<svg
   xmlns:dc="http://purl.org/dc/elements/1.1/"
   xmlns:cc="http://creativecommons.org/ns#"
   xmlns:rdf="http://www.w3.org/1999/02/22-rdf-syntax-ns#"
   xmlns:svg="http://www.w3.org/2000/svg"
   xmlns="http://www.w3.org/2000/svg"
   xmlns:xlink="http://www.w3.org/1999/xlink"
   xmlns:sodipodi="http://sodipodi.sourceforge.net/DTD/sodipodi-0.dtd"
   xmlns:inkscape="http://www.inkscape.org/namespaces/inkscape"
   width="524.40942"
   height="744.09448"
   id="svg5817"
   version="1.1"
   inkscape:version="0.48.3.1 r9886"
   sodipodi:docname="Neues Dokument 67">
  <defs
     id="defs5819">
    <inkscape:path-effect
       effect="skeletal"
       id="path-effect6510"
       is_visible="true"
       pattern="m 31.428571,-105.71429 0,10.000004 10,-5.000004 z"
       copytype="single_stretched"
       prop_scale="1"
       scale_y_rel="false"
       spacing="0"
       normal_offset="0"
       tang_offset="0"
       prop_units="false"
       vertical_pattern="false"
       fuse_tolerance="0" />
    <inkscape:path-effect
       fuse_tolerance="0"
       vertical_pattern="false"
       prop_units="false"
       tang_offset="0"
       normal_offset="0"
       spacing="0"
       scale_y_rel="false"
       prop_scale="1"
       copytype="single_stretched"
       pattern="m -106.12693,-115.32998 c 0,-2.76 2.24,-5 5,-5 2.76,0 5,2.24 5,5 0,2.76 -2.24,5 -5,5 -2.76,0 -5,-2.24 -5,-5 z"
       is_visible="true"
       id="path-effect6506"
       effect="skeletal" />
    <linearGradient
       id="linearGradient6498">
      <stop
         id="stop6500"
         offset="0"
         style="stop-color:#ab0000;stop-opacity:1;" />
      <stop
         id="stop6502"
         offset="1"
         style="stop-color:#7a1010;stop-opacity:1;" />
    </linearGradient>
    <inkscape:path-effect
       effect="skeletal"
       id="path-effect6496"
       is_visible="true"
       pattern="m 31.428571,-105.71429 0,10.000004 10,-5.000004 z"
       copytype="single_stretched"
       prop_scale="1"
       scale_y_rel="false"
       spacing="0"
       normal_offset="0"
       tang_offset="0"
       prop_units="false"
       vertical_pattern="false"
       fuse_tolerance="0" />
    <inkscape:path-effect
       effect="skeletal"
       id="path-effect6492"
       is_visible="true"
       pattern="M 0,5 10,10 10,0 z"
       copytype="single_stretched"
       prop_scale="1"
       scale_y_rel="false"
       spacing="0"
       normal_offset="0"
       tang_offset="0"
       prop_units="false"
       vertical_pattern="false"
       fuse_tolerance="0" />
    <inkscape:path-effect
       effect="spiro"
       id="path-effect6438"
       is_visible="true" />
    <inkscape:path-effect
       fuse_tolerance="0"
       vertical_pattern="false"
       prop_units="false"
       tang_offset="0"
       normal_offset="0"
       spacing="0"
       scale_y_rel="false"
       prop_scale="1"
       copytype="single_stretched"
       pattern="m -84.984079,-230.18713 c 0,-2.76 2.24,-5 5,-5 2.76,0 5,2.24 5,5 0,2.76 -2.24,5 -5,5 -2.76,0 -5,-2.24 -5,-5 z"
       is_visible="true"
       id="path-effect6432"
       effect="skeletal" />
    <inkscape:path-effect
       fuse_tolerance="0"
       vertical_pattern="false"
       prop_units="false"
       tang_offset="0"
       normal_offset="0"
       spacing="0"
       scale_y_rel="false"
       prop_scale="1"
       copytype="single_stretched"
       pattern="m -80.698359,-233.04427 c 0,-2.76 2.24,-5 5,-5 2.76,0 5,2.24 5,5 0,2.76 -2.24,5 -5,5 -2.76,0 -5,-2.24 -5,-5 z"
       is_visible="true"
       id="path-effect6430"
       effect="skeletal" />
    <inkscape:path-effect
       fuse_tolerance="0"
       vertical_pattern="false"
       prop_units="false"
       tang_offset="0"
       normal_offset="0"
       spacing="0"
       scale_y_rel="false"
       prop_scale="1"
       copytype="single_stretched"
       pattern="m -80.698359,-233.04427 c 0,-2.76 2.24,-5 5,-5 2.76,0 5,2.24 5,5 0,2.76 -2.24,5 -5,5 -2.76,0 -5,-2.24 -5,-5 z"
       is_visible="true"
       id="path-effect6428"
       effect="skeletal" />
    <inkscape:path-effect
       effect="skeletal"
       id="path-effect6426"
       is_visible="true"
       pattern="m -86.412649,-229.47284 c 0,-2.76 2.24,-5 5,-5 2.76,0 5,2.24 5,5 0,2.76 -2.24,5 -5,5 -2.76,0 -5,-2.24 -5,-5 z"
       copytype="single_stretched"
       prop_scale="1"
       scale_y_rel="false"
       spacing="0"
       normal_offset="0"
       tang_offset="0"
       prop_units="false"
       vertical_pattern="false"
       fuse_tolerance="0" />
    <inkscape:path-effect
       effect="skeletal"
       id="path-effect6422"
       is_visible="true"
       pattern="m -80.698359,-233.04427 c 0,-2.76 2.24,-5 5,-5 2.76,0 5,2.24 5,5 0,2.76 -2.24,5 -5,5 -2.76,0 -5,-2.24 -5,-5 z"
       copytype="single_stretched"
       prop_scale="1"
       scale_y_rel="false"
       spacing="0"
       normal_offset="0"
       tang_offset="0"
       prop_units="false"
       vertical_pattern="false"
       fuse_tolerance="0" />
    <inkscape:path-effect
       effect="skeletal"
       id="path-effect6418"
       is_visible="true"
       pattern="m -80.698359,-233.04427 c 0,-2.76 2.24,-5 5,-5 2.76,0 5,2.24 5,5 0,2.76 -2.24,5 -5,5 -2.76,0 -5,-2.24 -5,-5 z"
       copytype="single_stretched"
       prop_scale="1"
       scale_y_rel="false"
       spacing="0"
       normal_offset="0"
       tang_offset="0"
       prop_units="false"
       vertical_pattern="false"
       fuse_tolerance="0" />
    <inkscape:path-effect
       effect="skeletal"
       id="path-effect6393"
       is_visible="true"
       pattern="m -74.269789,-228.75856 c 0,-2.76 2.24,-5 5,-5 2.759998,0 4.999998,2.24 4.999998,5 0,2.76 -2.24,5 -4.999998,5 -2.76,0 -5,-2.24 -5,-5 z"
       copytype="single_stretched"
       prop_scale="1"
       scale_y_rel="false"
       spacing="0"
       normal_offset="0"
       tang_offset="0"
       prop_units="false"
       vertical_pattern="false"
       fuse_tolerance="0" />
    <inkscape:path-effect
       effect="skeletal"
       id="path-effect6389"
       is_visible="true"
       pattern="m -80.698359,-233.04427 c 0,-2.76 2.24,-5 5,-5 2.76,0 5,2.24 5,5 0,2.76 -2.24,5 -5,5 -2.76,0 -5,-2.24 -5,-5 z"
       copytype="single_stretched"
       prop_scale="1"
       scale_y_rel="false"
       spacing="0"
       normal_offset="0"
       tang_offset="0"
       prop_units="false"
       vertical_pattern="false"
       fuse_tolerance="0" />
    <inkscape:path-effect
       effect="skeletal"
       id="path-effect6385"
       is_visible="true"
       pattern="m -197.12693,45.527164 c 0,-2.76 2.24,-5 5,-5 2.76,0 5,2.24 5,5 0,2.76 -2.24,5 -5,5 -2.76,0 -5,-2.24 -5,-5 z"
       copytype="single_stretched"
       prop_scale="1"
       scale_y_rel="false"
       spacing="0"
       normal_offset="0"
       tang_offset="0"
       prop_units="false"
       vertical_pattern="false"
       fuse_tolerance="0" />
    <inkscape:path-effect
       fuse_tolerance="0"
       vertical_pattern="false"
       prop_units="false"
       tang_offset="0"
       normal_offset="0"
       spacing="0"
       scale_y_rel="false"
       prop_scale="1"
       copytype="single_stretched"
       pattern="m -290.69836,18.384304 c 0,-2.76 2.24,-5 5,-5 2.76,0 5,2.24 5,5 0,2.76 -2.24,5 -5,5 -2.76,0 -5,-2.24 -5,-5 z"
       is_visible="true"
       id="path-effect6381"
       effect="skeletal" />
    <inkscape:path-effect
       fuse_tolerance="0"
       vertical_pattern="false"
       prop_units="false"
       tang_offset="0"
       normal_offset="0"
       spacing="0"
       scale_y_rel="false"
       prop_scale="1"
       copytype="single_stretched"
       pattern="m -97.841219,-313.04427 c 0,-2.76 2.24,-5 5,-5 2.76,0 5,2.24 5,5 0,2.76 -2.24,5 -5,5 -2.76,0 -5,-2.24 -5,-5 z"
       is_visible="true"
       id="path-effect6371"
       effect="skeletal" />
    <inkscape:path-effect
       effect="skeletal"
       id="path-effect6367"
       is_visible="true"
       pattern="m -80.698359,-233.04427 c 0,-2.76 2.24,-5 5,-5 2.76,0 5,2.24 5,5 0,2.76 -2.24,5 -5,5 -2.76,0 -5,-2.24 -5,-5 z"
       copytype="single_stretched"
       prop_scale="1"
       scale_y_rel="false"
       spacing="0"
       normal_offset="0"
       tang_offset="0"
       prop_units="false"
       vertical_pattern="false"
       fuse_tolerance="0" />
    <inkscape:path-effect
       effect="skeletal"
       id="path-effect6363"
       is_visible="true"
       pattern="m -80.698359,-233.04427 c 0,-2.76 2.24,-5 5,-5 2.76,0 5,2.24 5,5 0,2.76 -2.24,5 -5,5 -2.76,0 -5,-2.24 -5,-5 z"
       copytype="single_stretched"
       prop_scale="1"
       scale_y_rel="false"
       spacing="0"
       normal_offset="0"
       tang_offset="0"
       prop_units="false"
       vertical_pattern="false"
       fuse_tolerance="0" />
    <inkscape:path-effect
       effect="skeletal"
       id="path-effect6359"
       is_visible="true"
       pattern="m -81.412649,-238.75856 c 0,-2.76 2.24,-5 5,-5 2.76,0 5,2.24 5,5 0,2.76 -2.24,5 -5,5 -2.76,0 -5,-2.24 -5,-5 z"
       copytype="single_stretched"
       prop_scale="1"
       scale_y_rel="false"
       spacing="0"
       normal_offset="0"
       tang_offset="0"
       prop_units="false"
       vertical_pattern="false"
       fuse_tolerance="0" />
    <inkscape:path-effect
       effect="skeletal"
       id="path-effect6355"
       is_visible="true"
       pattern="m -80.698359,-233.04427 c 0,-2.76 2.24,-5 5,-5 2.76,0 5,2.24 5,5 0,2.76 -2.24,5 -5,5 -2.76,0 -5,-2.24 -5,-5 z"
       copytype="single_stretched"
       prop_scale="1"
       scale_y_rel="false"
       spacing="0"
       normal_offset="0"
       tang_offset="0"
       prop_units="false"
       vertical_pattern="false"
       fuse_tolerance="0" />
    <inkscape:path-effect
       effect="skeletal"
       id="path-effect6351"
       is_visible="true"
       pattern="m -84.984079,-230.18713 c 0,-2.76 2.24,-5 5,-5 2.76,0 5,2.24 5,5 0,2.76 -2.24,5 -5,5 -2.76,0 -5,-2.24 -5,-5 z"
       copytype="single_stretched"
       prop_scale="1"
       scale_y_rel="false"
       spacing="0"
       normal_offset="0"
       tang_offset="0"
       prop_units="false"
       vertical_pattern="false"
       fuse_tolerance="0" />
    <linearGradient
       id="linearGradient6335">
      <stop
         style="stop-color:#ab0000;stop-opacity:1;"
         offset="0"
         id="stop6337" />
      <stop
         style="stop-color:#911313;stop-opacity:1;"
         offset="1"
         id="stop6339" />
    </linearGradient>
    <radialGradient
       inkscape:collect="always"
       xlink:href="#linearGradient6335"
       id="radialGradient6347"
       cx="173.02412"
       cy="169.44389"
       fx="173.02412"
       fy="169.44389"
       r="198.88028"
       gradientTransform="matrix(1,0,0,0.94882174,0,10.405588)"
       gradientUnits="userSpaceOnUse" />
    <inkscape:path-effect
       effect="skeletal"
       id="path-effect6385-1"
       is_visible="true"
       pattern="m -94.119679,-14.048619 c 0,-2.76 2.24,-5 5,-5 2.76,0 5,2.24 5,5 0,2.76 -2.24,5.0000003 -5,5.0000003 -2.76,0 -5,-2.2400003 -5,-5.0000003 z"
       copytype="single_stretched"
       prop_scale="1"
       scale_y_rel="false"
       spacing="0"
       normal_offset="0"
       tang_offset="0"
       prop_units="false"
       vertical_pattern="false"
       fuse_tolerance="0" />
    <linearGradient
       inkscape:collect="always"
       xlink:href="#linearGradient6335"
       id="linearGradient6450"
       x1="185.36807"
       y1="852.85938"
       x2="242.93663"
       y2="759.92535"
       gradientUnits="userSpaceOnUse"
       spreadMethod="reflect"
       gradientTransform="translate(31.428571,-105.71429)" />
    <linearGradient
       inkscape:collect="always"
       xlink:href="#linearGradient6335-2"
       id="linearGradient6450-2"
       x1="185.36807"
       y1="852.85938"
       x2="242.93663"
       y2="759.92535"
       gradientUnits="userSpaceOnUse"
       spreadMethod="reflect" />
    <linearGradient
       id="linearGradient6335-2">
      <stop
         style="stop-color:#ab0000;stop-opacity:1;"
         offset="0"
         id="stop6337-7" />
      <stop
         style="stop-color:#911313;stop-opacity:1;"
         offset="1"
         id="stop6339-6" />
    </linearGradient>
    <linearGradient
       gradientTransform="matrix(-1,0,0,1,677.42112,-90.059235)"
       y2="759.92535"
       x2="242.93663"
       y1="852.85938"
       x1="185.36807"
       spreadMethod="reflect"
       gradientUnits="userSpaceOnUse"
       id="linearGradient6469"
       xlink:href="#linearGradient6498"
       inkscape:collect="always" />
    <linearGradient
       inkscape:collect="always"
       xlink:href="#linearGradient6498"
       id="linearGradient6536"
       gradientUnits="userSpaceOnUse"
       gradientTransform="matrix(-1,0,0,1,677.42112,-90.059235)"
       spreadMethod="reflect"
       x1="185.36807"
       y1="852.85938"
       x2="242.93663"
       y2="759.92535" />
    <linearGradient
       inkscape:collect="always"
       xlink:href="#linearGradient6335"
       id="linearGradient6538"
       gradientUnits="userSpaceOnUse"
       gradientTransform="translate(31.428571,-105.71429)"
       spreadMethod="reflect"
       x1="185.36807"
       y1="852.85938"
       x2="242.93663"
       y2="759.92535" />
    <radialGradient
       inkscape:collect="always"
       xlink:href="#linearGradient6335"
       id="radialGradient6540"
       gradientUnits="userSpaceOnUse"
       gradientTransform="matrix(1,0,0,0.94882174,0,10.405588)"
       cx="173.02412"
       cy="169.44389"
       fx="173.02412"
       fy="169.44389"
       r="198.88028" />
  </defs>
  <sodipodi:namedview
     id="base"
     pagecolor="#ffffff"
     bordercolor="#666666"
     borderopacity="1.0"
     inkscape:pageopacity="0.0"
     inkscape:pageshadow="2"
     inkscape:zoom="0.35"
     inkscape:cx="656.69495"
     inkscape:cy="595.41148"
     inkscape:document-units="px"
     inkscape:current-layer="layer1"
     showgrid="false"
     inkscape:window-width="1366"
     inkscape:window-height="746"
     inkscape:window-x="0"
     inkscape:window-y="0"
     inkscape:window-maximized="1" />
  <metadata
     id="metadata5822">
    <rdf:RDF>
      <cc:Work
         rdf:about="">
        <dc:format>image/svg+xml</dc:format>
        <dc:type
           rdf:resource="http://purl.org/dc/dcmitype/StillImage" />
        <dc:title></dc:title>
      </cc:Work>
    </rdf:RDF>
  </metadata>
  <g
     inkscape:label="Ebene 1"
     inkscape:groupmode="layer"
     id="layer1"
     transform="translate(0,-308.26768)">
    <g
       id="g6512"
       transform="translate(-85.714286,165.71429)">
      <path
         sodipodi:nodetypes="cscscscsssc"
         inkscape:connector-curvature="0"
         id="path6440-5"
         d="m 349.12154,443.08453 c 118.18785,120.20816 32.32488,203.04067 65.65992,259.60921 37.24412,63.20212 145.46197,77.78174 145.46197,77.78174 0,0 -30.01834,-13.3388 -46.46702,-30.30457 -15.35699,-15.83976 -20.20306,-27.27412 -20.20306,-27.27412 0,0 4.06779,5.1388 34.34519,13.13198 26.78451,7.07107 48.48733,3.03046 48.48733,3.03046 0,0 -73.38438,-8.19094 -88.89343,-62.62946 -10.84423,-38.06449 11.11168,-50.50763 -2.02031,-116.16754 -13.34396,-66.71979 -58.58884,-108.08632 -78.79189,-115.15739 -20.20305,-7.07107 -57.5787,-2.02031 -57.5787,-2.02031 z"
         style="fill:url(#linearGradient6536);fill-opacity:1;stroke:none" />
      <path
         sodipodi:nodetypes="cscscscsssc"
         inkscape:connector-curvature="0"
         id="path6440"
         d="m 359.72815,427.42948 c -118.18785,120.20816 0,259.60921 -57.5787,305.06607 -57.57869,45.45687 -169.70563,36.36549 -169.70563,36.36549 0,0 34.05895,-13.3388 54.54824,-19.19289 21.21321,-6.06092 36.3655,-22.22336 36.3655,-22.22336 0,0 -20.20306,12.12183 -51.51778,12.12183 -24.76421,0 -55.55839,-12.12183 -55.55839,-12.12183 0,0 76.77159,4.04062 105.05586,-42.42641 20.91031,-34.35266 -33.33504,-75.76144 -12.12183,-140.4112 21.2132,-64.64976 72.73098,-108.08632 92.93403,-115.15739 20.20305,-7.07107 57.5787,-2.02031 57.5787,-2.02031 z"
         style="fill:url(#linearGradient6538);fill-opacity:1;stroke:none" />
      <path
         sodipodi:nodetypes="cssc"
         inkscape:connector-curvature="0"
         inkscape:original-d="m 417.30684,558.74932 c 4.54569,58.58884 -9.86942,92.04621 -7.57615,118.69292 1.36901,15.90718 5.68323,33.18017 24.74875,48.9924 35.25228,29.23693 43.43656,27.27412 43.43656,27.27412"
         inkscape:path-effect="#path-effect6510"
         id="path6508"
         d="m 422.29186,558.36255 -9.97004,0.77354 c 2.34338,23.28572 1.50852,46.96492 -1.35163,70.44754 -1.04686,8.5764 -2.33489,17.21516 -3.21795,25.96225 -0.74147,7.24174 -1.17979,14.67189 -0.39351,22.1005 0,0 0,0 0,10e-6 0.90939,8.55992 2.78358,17.15419 6.43905,25.06057 4.54565,9.75826 11.6695,18.03738 19.95523,24.60357 0,0 0,10e-6 10e-6,10e-6 11.16877,8.86852 22.57718,17.86382 35.53847,23.88431 0,0 10e-6,0 10e-6,0 2.17431,1.00974 4.41313,1.96062 6.76543,2.39931 0,0 10e-6,0 10e-6,0 0.62262,0.0382 1.24228,0.0764 1.85896,0.11463 7e-5,-2e-5 10e-5,-3e-5 10e-5,-3e-5 0,0 -3e-5,0 -10e-5,2e-5 -0.61868,-0.0651 -1.2344,-0.1303 -1.84716,-0.1955 -2.32395,-0.53879 -4.48868,-1.578 -6.60225,-2.67466 0,0 0,0 0,-10e-6 -12.63116,-6.55171 -23.48172,-15.94581 -34.26061,-25.27986 0,0 0,0 -10e-6,0 -7.75926,-6.74094 -14.23903,-14.98602 -18.0659,-24.31762 -3.12211,-7.54691 -4.49982,-15.75086 -5.03731,-24.00302 0,0 0,0 0,-10e-6 -0.44871,-6.92122 0.30328,-13.94237 1.31756,-20.99609 1.23768,-8.52013 2.89466,-17.03583 4.33643,-25.67749 3.96276,-23.72279 5.8813,-47.93466 4.53521,-72.20197 z"
         style="fill:#d22b2b;fill-opacity:1;fill-rule:evenodd;stroke:none" />
      <path
         sodipodi:nodetypes="cssc"
         inkscape:connector-curvature="0"
         inkscape:original-d="m 306.19006,525.41428 c -15.15229,46.46702 0,73.74113 5.05076,111.11678 5.05077,37.37564 14.78568,65.36057 0,83.84267 -24.24366,30.30457 -77.78174,42.4264 -77.78174,42.4264"
         inkscape:path-effect="#path-effect6496"
         id="path6494"
         d="m 310.94371,526.96438 -9.5073,-3.1002 c -3.28944,10.66759 -5.43699,21.74916 -5.98957,32.97037 -0.4534,9.47196 0.25781,18.90022 1.76784,28.12032 2.92938,17.87131 8.38612,34.7946 11.00658,51.98424 2.52241,16.53287 6.58545,32.55774 8.27716,48.78823 0.64628,6.29013 0.9044,12.58616 -0.13402,18.66305 0,0 0,10e-6 0,10e-6 -0.92217,5.42149 -2.99139,10.68397 -6.33935,15.01071 -5.91147,7.67963 -13.53002,14.04725 -21.71993,19.5039 -7.93479,5.28146 -16.45659,9.70775 -25.2402,13.53777 -10e-6,10e-6 -10e-6,10e-6 -2e-5,10e-6 -6.81433,2.97082 -13.79287,5.5826 -20.89181,7.83494 -1e-5,0 -1e-5,0 -2e-5,0 -2.11078,0.6697 -4.23205,1.30757 -6.36704,1.89919 0,0 0,0 0,0 -1e-5,0 -1e-5,0 -2e-5,0 -0.57778,0.1601 -1.15651,0.31683 -1.73685,0.46777 0,0 -1e-5,10e-6 -1e-5,10e-6 0,0 -1e-5,0 -1e-5,0 -0.15103,0.0393 -0.30216,0.0782 -0.45348,0.11634 -0.0388,0.01 -0.0775,0.0195 -0.11635,0.0292 -0.01,0.003 -0.0198,0.005 -0.0297,0.007 -0.003,8.3e-4 -0.007,0.002 -0.0105,0.002 -1e-5,0 -1e-5,0 -1e-5,0 0,0 0,0 1e-5,0 0.004,-8e-4 0.007,-0.002 0.0105,-0.002 0.01,-0.002 0.02,-0.004 0.03,-0.006 0.0391,-0.008 0.0782,-0.0167 0.1173,-0.0251 0.15257,-0.0329 0.30499,-0.0666 0.45732,-0.1006 1e-5,0 1e-5,0 2e-5,0 0,0 10e-6,0 10e-6,-1e-5 0.58536,-0.13081 1.16948,-0.26749 1.75278,-0.4076 2.15536,-0.5177 4.30005,-1.08247 6.43578,-1.67962 10e-6,0 10e-6,0 2e-5,0 7.18286,-2.0083 14.2705,-4.3841 21.2193,-7.13156 10e-6,-10e-6 10e-6,-10e-6 2e-5,-10e-6 8.95718,-3.54089 17.70518,-7.70607 25.94732,-12.78672 8.51063,-5.24087 16.54903,-11.50671 23.02709,-19.314 3.85413,-4.67587 6.35613,-10.36209 7.55659,-16.27247 1e-5,0 1e-5,-10e-6 1e-5,-10e-6 0,0 0,0 0,-1e-5 0,0 0,0 0,0 1.32557,-6.5435 1.31462,-13.22488 0.84737,-19.72626 0,0 0,0 0,0 -1.1747,-16.69678 -4.69636,-33.00338 -6.60018,-49.22459 0,0 0,-10e-6 0,-10e-6 -2.12325,-17.91383 -7.00891,-35.1343 -9.19646,-52.314 -1.12282,-8.8149 -1.49094,-17.68083 -0.75755,-26.39634 0.85464,-10.34443 3.22678,-20.56918 6.63734,-30.44828 z"
         style="fill:#650000;fill-opacity:1;fill-rule:evenodd;stroke:none" />
      <path
         transform="translate(193.58735,190.52716)"
         d="m 281.49617,321.29198 c -19.61856,19.26487 10.06805,54.25978 -15.79891,65.58009 -25.86696,11.32031 -42.05356,-26.60238 -70.05906,-23.05723 -28.00551,3.54514 -29.05848,31.44316 -55.7849,27.28645 -26.72643,-4.15671 -5.47323,-37.41784 -29.56949,-50.67592 -24.096258,-13.25808 -59.625551,3.91685 -79.739327,-15.8815 -20.113776,-19.79836 27.1522,-26.1071 15.207249,-50.64504 C 33.80678,249.36088 -17.892307,257.6336 -22.801873,230.91072 -27.711439,204.18784 12.851235,188.04732 17.22891,161.29996 21.606586,134.5526 0.25348476,129.86386 14.078566,106.53995 27.903646,83.216037 50.755777,114.55177 72.399334,96.784903 94.042891,79.018032 62.010244,39.150255 88.197929,29.047351 114.38561,18.944448 138.98104,47.765644 167.02931,45.299766 c 28.04826,-2.465877 18.46868,-35.3720139 45.96217,-29.475135 27.49348,5.89688 14.81697,40.456534 38.02093,55.908623 23.20396,15.45209 59.49222,-33.600719 78.20285,-12.293855 18.71062,21.306863 -31.39006,47.835921 -20.00133,73.773091 11.38872,25.93717 62.3949,13.65205 64.25482,40.85987 1.85992,27.20781 -29.88224,37.11016 -36.80216,63.21968 -6.91991,26.10953 18.13643,29.17892 3.15003,52.60256 -14.98639,23.42364 -38.70189,12.13251 -58.32045,31.39738 z"
         inkscape:randomized="0.05"
         inkscape:rounded="0.41"
         inkscape:flatsided="false"
         sodipodi:arg2="1.1375139"
         sodipodi:arg1="0.82335463"
         sodipodi:r2="194.84877"
         sodipodi:r1="154.82434"
         sodipodi:cy="200.93361"
         sodipodi:cx="177.14285"
         sodipodi:sides="10"
         id="path5825"
         style="fill:url(#radialGradient6540);fill-opacity:1;stroke:none"
         sodipodi:type="star" />
      <path
         sodipodi:nodetypes="csc"
         inkscape:connector-curvature="0"
         inkscape:original-d="m 275.73022,235.03219 c 15.71428,-7.85714 10,-9.28571 20.71428,-7.14285 10.71429,2.14285 34.28571,12.85714 34.28571,12.85714"
         inkscape:path-effect="#path-effect6351"
         id="path6349"
         d="m 275.73022,235.03219 c -0.32493,-0.64987 0.19958,-1.67401 1.34815,-2.98776 1.14858,-1.31375 2.92439,-2.91343 4.99804,-4.82008 0.90525,-0.86002 2.01697,-1.99806 3.76903,-3.2182 1.5117,-0.94582 3.29583,-1.51563 5.21876,-1.54861 2.38702,-0.0151 4.56265,0.35561 6.33482,0.65922 2.43336,0.40719 4.85575,1.04448 7.21075,1.81308 1.16332,0.37967 2.27985,0.77997 3.35104,1.18373 4.2394,1.58105 8.04376,3.34776 11.27655,5.06331 7.57108,4.19858 12.2046,7.90251 11.49706,9.55999 0,0 0,0 0,0 0,0 0,0 0,0 -0.004,0.01 -0.004,0.01 -0.004,0.01 0,0 10e-6,1e-5 -0.004,0.01 0,0 0,0 0,0 0,1e-5 0,1e-5 0,1e-5 -0.7482,1.64005 -6.62685,0.839 -14.78082,-1.70138 -3.42615,-0.99702 -7.24289,-2.24337 -11.27682,-3.56874 -1.06141,-0.34542 -2.11945,-0.69914 -3.17204,-1.04485 -2.13083,-0.69983 -4.12376,-1.3232 -6.00628,-1.77918 -2.06301,-0.46343 -3.57593,-0.98043 -4.75892,-1.1265 -0.19077,-0.11054 -0.45065,-0.15298 -0.65178,-0.12004 -1.14503,0.43534 -2.4873,1.25311 -3.97651,1.96036 -2.87002,1.32922 -5.32041,2.03015 -7.11361,2.27506 -1.79319,0.24491 -2.93401,0.0313 -3.25894,-0.61861 z"
         style="fill:#ffffff;fill-opacity:1;fill-rule:evenodd;stroke:none" />
      <path
         sodipodi:nodetypes="csc"
         inkscape:connector-curvature="0"
         inkscape:original-d="m 352.87307,245.0322 c 22.14285,4.28571 28.57143,1.42856 38.57143,-13.57143 5.50439,-8.25658 9.28571,-16.42857 9.28571,-16.42857"
         inkscape:path-effect="#path-effect6355"
         id="path6353"
         d="m 352.87307,245.0322 c 0.16419,-0.84831 1.69912,-1.36446 4.20035,-1.65747 1.25062,-0.14651 2.74066,-0.2401 4.40708,-0.33215 1.66643,-0.0921 3.50849,-0.18213 5.46223,-0.36266 2.74238,-0.28036 5.64459,-0.64835 8.10583,-1.75863 1.65656,-0.67514 3.30431,-1.79002 4.91535,-3.20069 0.28786,-0.25206 0.5715,-0.51067 0.85078,-0.7742 2.48576,-2.33509 4.62084,-5.17921 6.7427,-7.87548 3.00777,-4.53172 5.83317,-8.25065 8.1427,-10.74028 2.30953,-2.48963 4.10291,-3.74949 5.01477,-3.30621 0,0 1e-5,0 1e-5,0 0,0 0,0 0,0 0.0153,0.008 0.0153,0.008 0.0153,0.008 0,0 3e-5,-2e-5 0.0153,0.008 0,0 0,0 0,0 0,0 0,0 0,0 0.8904,0.48124 0.7684,2.61014 -0.19582,5.91252 -0.96422,3.30238 -2.77092,7.77872 -5.21805,12.89796 -1.81914,3.21524 -4.15925,6.82593 -7.5207,10.22719 -0.39341,0.39641 -0.80441,0.78468 -1.23283,1.16264 -2.39768,2.11525 -5.2087,3.77309 -8.20194,4.79551 -4.35623,1.37863 -8.359,1.37907 -11.64863,0.94226 -2.29412,-0.2907 -4.31981,-0.74449 -6.06614,-1.255 -1.74634,-0.5105 -3.21418,-1.07815 -4.39165,-1.63903 -2.35493,-1.12175 -3.56084,-2.20368 -3.39665,-3.05199 z"
         style="fill:#ffffff;fill-opacity:1;fill-rule:evenodd;stroke:none" />
      <path
         sodipodi:nodetypes="czc"
         inkscape:connector-curvature="0"
         inkscape:original-d="m 273.58734,448.60362 c 30.40086,61.8748 124.98066,82.59261 179.77309,28.65427 54.79243,-53.93834 28.08406,-116.51142 28.08406,-116.51142"
         inkscape:path-effect="#path-effect6359"
         id="path6357"
         d="m 273.58734,448.60362 c 0.31548,-0.155 1.14501,0.8023 2.52996,2.67142 1.38495,1.86913 3.33452,4.64912 6.03412,8.04304 2.6996,3.39392 6.1587,7.40215 10.5643,11.63441 4.40559,4.23226 9.7653,8.68899 16.13794,12.87945 0,0 0,0 1e-5,1e-5 6.02256,3.95819 12.94993,7.69082 20.71457,10.81628 7.76464,3.12546 16.36751,5.64258 25.57466,7.1789 7.77062,1.29085 15.98372,1.8787 24.40342,1.54795 8.4197,-0.33074 17.04476,-1.58063 25.5654,-3.94565 3.95861,-1.09538 7.89445,-2.43971 11.77095,-4.03058 12.68684,-5.20654 23.95438,-12.74695 33.07823,-21.59432 6.18069,-6.003 11.591,-12.41475 16.10738,-18.9936 4.51638,-6.57885 8.13869,-13.32442 10.87319,-20.01907 2.63441,-6.42065 4.47289,-12.78643 5.70891,-18.85709 1.23602,-6.07066 1.8703,-11.84676 2.10842,-17.168 0.25728,-5.62621 0.088,-10.74912 -0.2736,-15.26029 -0.3616,-4.51117 -0.91404,-8.41272 -1.44377,-11.64523 -1.57776,-6.91943 -2.18631,-10.88557 -1.59949,-11.11383 0,0 1e-5,0 1e-5,0 0,0 0,0 0,0 0.003,-9.5e-4 0.003,-9.5e-4 0.003,-9.5e-4 0,0 0,0 0.003,-9.3e-4 0,0 0,0 0,0 0,0 10e-6,0 10e-6,0 0.59357,-0.20663 2.33581,3.35574 5.04187,10.15541 1.05261,3.21412 2.12358,7.17938 2.9821,11.85475 0.85852,4.67538 1.50291,10.06301 1.66916,16.06104 0.15223,5.64815 -0.14259,11.83969 -1.12412,18.41014 -0.98152,6.57045 -2.65091,13.52035 -5.23693,20.59652 -2.7074,7.37471 -6.39762,14.82135 -11.08556,22.06512 -4.68793,7.24377 -10.37364,14.28366 -16.93361,20.82273 -9.87353,9.85388 -22.16419,18.22617 -36.0811,23.93768 -4.25235,1.74517 -8.57603,3.21106 -12.92969,4.39573 -9.34237,2.53478 -18.75303,3.80987 -27.89249,4.04037 -9.13946,0.23049 -18.00651,-0.58259 -26.34548,-2.19079 -9.87656,-1.89796 -19.03129,-4.90449 -27.21269,-8.58327 -8.18139,-3.67878 -15.39056,-8.02763 -21.55805,-12.6042 0,0 -10e-6,0 -10e-6,0 -6.54253,-4.85199 -11.88945,-9.98193 -16.13879,-14.83521 -4.24933,-4.85328 -7.40919,-9.42959 -9.70949,-13.31474 -2.30031,-3.88514 -3.75064,-7.07953 -4.57843,-9.30779 -0.82778,-2.22827 -1.04188,-3.49041 -0.7264,-3.64541 z"
         style="fill:#ff7d7d;fill-opacity:1;fill-rule:evenodd;stroke:none" />
      <path
         sodipodi:nodetypes="csc"
         inkscape:connector-curvature="0"
         inkscape:original-d="m 212.87307,314.31791 c -1.42857,-16.42857 7.14286,-15 16.42857,-14.28572 9.28572,0.71429 17.14286,10.71429 32.85714,-2.14285"
         inkscape:path-effect="#path-effect6363"
         id="path6361"
         d="m 212.87307,314.31791 c -0.34723,0.0302 -0.70717,-0.16212 -1.07104,-0.57003 -0.36387,-0.40791 -0.73369,-1.03131 -1.06524,-1.88086 -0.33155,-0.84956 -0.62693,-1.92642 -0.77452,-3.25043 -0.1476,-1.32402 -0.14865,-2.89705 0.20171,-4.7251 0,0 0,0 0,0 0.24886,-1.19486 0.73509,-2.44431 1.53605,-3.64398 0.80095,-1.19966 1.91716,-2.34955 3.41434,-3.30266 2.45399,-1.34619 5.13033,-1.95778 7.45164,-2.00128 2.47826,-0.13638 4.89277,0.007 7.11625,0.14053 1.70418,0.14038 3.30512,0.45932 4.78071,0.87632 1.24539,0.35194 2.37199,0.76344 3.38895,1.17573 2.50398,0.94087 4.55071,1.84176 6.35734,2.30335 2.24298,0.61318 4.47166,0.73914 6.43564,0.5093 1.48622,-0.14873 2.88636,-0.49417 4.16709,-0.85918 1.28072,-0.36501 2.44118,-0.75032 3.44549,-1.04279 2.00862,-0.58494 3.39409,-0.77741 3.9013,-0.15749 0.50721,0.61992 0.10947,1.99404 -1.33625,3.82503 -0.72285,0.9155 -1.71573,1.93825 -3.03773,2.95896 -1.322,1.0207 -2.97455,2.04027 -5.02731,2.8753 -2.9268,1.12969 -6.52879,1.66478 -10.32775,1.11198 -2.88064,-0.44297 -5.58173,-1.32501 -7.99533,-2.18327 -0.98979,-0.32188 -1.91814,-0.64421 -2.78153,-0.90904 -1.02298,-0.31378 -1.92579,-0.5353 -2.73186,-0.58802 -2.40395,-0.2229 -4.4619,-0.52769 -6.25428,-0.61839 -1.68554,-6.5e-4 -2.90963,-0.10634 -3.64211,0.18622 -0.70171,-0.005 -1.49764,0.80001 -2.1255,1.66944 0,0 0,0 0,0 -0.5916,0.89941 -0.98712,1.90243 -1.32326,2.86245 -0.33615,0.96003 -0.61087,1.87689 -0.88743,2.65338 -0.55312,1.55299 -1.12091,2.52414 -1.81537,2.58453 z"
         style="fill:#ffffff;fill-opacity:1;fill-rule:evenodd;stroke:none" />
      <path
         sodipodi:nodetypes="csc"
         inkscape:connector-curvature="0"
         inkscape:original-d="m 518.58736,260.74648 c -4.28572,-10.71428 -19.53394,-1.726 -30.71429,7.85715 -15.00001,12.85714 -35,10 -35,10"
         inkscape:path-effect="#path-effect6367"
         id="path6365"
         d="m 518.58736,260.74648 c -0.3683,0.14732 -0.84656,-0.0339 -1.43686,-0.37025 -0.5903,-0.33636 -1.29803,-0.84791 -2.13002,-1.11546 -0.62349,-0.21799 -1.37207,-0.3314 -2.13867,-0.27662 0,0 0,0 0,0 -0.7342,-0.0107 -1.5431,0.16052 -2.47574,0.49567 -0.93263,0.33514 -1.99066,0.83541 -3.20465,1.36461 -2.40793,1.17431 -4.94892,2.74871 -7.61884,4.71589 -2.66992,1.96718 -5.47387,4.3264 -8.4558,6.83931 -0.13077,0.11108 -0.26238,0.22139 -0.3948,0.33091 -4.21572,3.48681 -8.86875,5.84732 -13.30152,7.29825 -4.43277,1.45093 -8.63936,2.00411 -12.19051,2.04126 0,0 0,0 0,0 -3.82686,0.051 -6.93662,-0.45909 -9.05755,-1.12851 0,0 0,0 0,0 -1.10321,-0.34806 -1.95293,-0.74311 -2.51143,-1.1402 0,0 0,0 0,0 -0.28429,-0.20216 -0.49677,-0.40549 -0.63062,-0.60438 0,0 0,0 0,0 0,0 0,0 0,0 -0.0689,-0.1005 -0.11783,-0.19987 -0.14576,-0.29743 0,0 0,0 0,0 -6.7e-4,-0.14174 -0.006,-0.21591 -0.0108,-0.2544 -0.005,-0.0377 -0.01,-0.0412 -0.0107,-0.0415 0,0 0,0 0,0 -5e-5,-2e-5 -4e-5,-2e-5 -4e-5,-2e-5 0,0 -10e-6,0 4e-5,-1e-5 0,0 0,0 0,0 7.4e-4,-8e-5 0.007,-0.002 0.0214,-0.037 0.0152,-0.0357 0.04,-0.10587 0.0786,-0.24249 0,0 0,0 0,0 0.0503,-0.0873 0.1171,-0.17207 0.20039,-0.25458 0,0 0,0 0,0 0,0 0,0 0,0 0.16803,-0.16323 0.40115,-0.31767 0.69898,-0.46646 0,0 0,0 0,0 0.58491,-0.29224 1.40568,-0.56443 2.44132,-0.84529 0,0 0,0 0,0 1.98999,-0.54026 4.73601,-1.11303 7.97638,-1.98214 0,0 0,0 0,0 2.97423,-0.81244 6.36746,-1.88906 9.83831,-3.44012 3.47086,-1.55105 7.01309,-3.57629 10.19307,-6.27255 0.0999,-0.0847 0.19913,-0.16981 0.29774,-0.25534 3.1047,-2.70419 6.40924,-5.19308 9.77727,-7.17544 3.36804,-1.98237 6.79496,-3.4545 10.03335,-4.34958 1.61876,-0.50901 3.36934,-0.79648 5.05654,-0.80537 1.6872,-0.009 3.31026,0.25872 4.73657,0.75149 0,0 0,0 0,0 1.70066,0.62977 2.94763,1.68217 3.74784,2.74022 0.97936,1.35597 1.22996,2.53302 1.23348,3.34744 0.004,0.81441 -0.24875,1.28277 -0.61705,1.43009 z"
         style="fill:#ff7d7d;fill-opacity:1;fill-rule:evenodd;stroke:none" />
      <path
         style="fill:#650000;fill-opacity:1;fill-rule:evenodd;stroke:none"
         d="m 474.61057,350.97125 c -0.31548,0.155 -1.14501,-0.80229 -2.52996,-2.67142 -1.38495,-1.86913 -3.33452,-4.64912 -6.03412,-8.04304 -2.6996,-3.39392 -6.1587,-7.40215 -10.5643,-11.63441 -4.40559,-4.23226 -9.7653,-8.68899 -16.13794,-12.87945 0,0 0,0 -10e-6,-10e-6 -6.02256,-3.95819 -12.94993,-7.69082 -20.71457,-10.81628 -7.76464,-3.12546 -16.36751,-5.64258 -25.57466,-7.1789 -7.77062,-1.29085 -15.98372,-1.8787 -24.40342,-1.54795 -8.4197,0.33074 -17.04476,1.58063 -25.5654,3.94565 -3.95861,1.09538 -7.89445,2.43971 -11.77095,4.03058 -12.68684,5.20654 -23.95438,12.74695 -33.07823,21.59432 -6.18069,6.003 -11.591,12.41475 -16.10738,18.9936 -4.51638,6.57885 -8.13869,13.32442 -10.87319,20.01907 -2.63441,6.42065 -4.47289,12.78643 -5.70891,18.85709 -1.23602,6.07066 -1.8703,11.84676 -2.10842,17.168 -0.25728,5.62621 -0.088,10.74912 0.2736,15.26029 0.3616,4.51117 0.91405,8.41272 1.44377,11.64523 1.57776,6.91943 2.18631,10.88557 1.59949,11.11383 0,0 -10e-6,0 -10e-6,0 0,0 0,0 0,0 -0.003,9.5e-4 -0.003,9.5e-4 -0.003,9.5e-4 0,0 0,0 -0.003,9.3e-4 0,0 0,0 0,0 0,0 -1e-5,0 -1e-5,0 -0.59357,0.20663 -2.33581,-3.35574 -5.04187,-10.15541 -1.05261,-3.21412 -2.12358,-7.17937 -2.9821,-11.85475 -0.85852,-4.67537 -1.50291,-10.06301 -1.66916,-16.06104 -0.15223,-5.64815 0.14259,-11.83969 1.12412,-18.41014 0.98152,-6.57045 2.65091,-13.52035 5.23693,-20.59652 2.7074,-7.37471 6.39762,-14.82135 11.08556,-22.06512 4.68793,-7.24377 10.37364,-14.28366 16.93361,-20.82273 9.87353,-9.85388 22.16419,-18.22617 36.0811,-23.93768 4.25235,-1.74517 8.57603,-3.21106 12.92969,-4.39573 9.34237,-2.53478 18.75303,-3.80987 27.89249,-4.04037 9.13946,-0.23049 18.00651,0.58259 26.34548,2.19079 9.87656,1.89796 19.03129,4.90449 27.21269,8.58327 8.18139,3.67878 15.39056,8.02763 21.55805,12.6042 0,0 1e-5,0 1e-5,0 6.54253,4.85199 11.88945,9.98193 16.13879,14.83521 4.24933,4.85328 7.40919,9.42959 9.70949,13.31474 2.30031,3.88514 3.75064,7.07953 4.57843,9.30779 0.82778,2.22827 1.04188,3.49041 0.7264,3.64541 z"
         id="path6369"
         inkscape:path-effect="#path-effect6371"
         inkscape:original-d="M 474.61057,350.97125 C 444.20971,289.09645 349.62991,268.37864 294.83748,322.31698 240.04505,376.25532 266.75342,438.8284 266.75342,438.8284"
         inkscape:connector-curvature="0"
         sodipodi:nodetypes="czc" />
      <path
         style="fill:#ff7d7d;fill-opacity:1;fill-rule:evenodd;stroke:none"
         d="m 275.73022,235.03219 c -0.32493,-0.64987 0.19958,-1.67401 1.34815,-2.98776 1.14858,-1.31375 2.92439,-2.91343 4.99804,-4.82008 0.90525,-0.86002 2.01697,-1.99806 3.76903,-3.2182 1.5117,-0.94582 3.29583,-1.51563 5.21876,-1.54861 2.38702,-0.0151 4.56265,0.35561 6.33482,0.65922 2.43336,0.40719 4.85575,1.04448 7.21075,1.81308 1.16332,0.37967 2.27985,0.77997 3.35104,1.18373 4.2394,1.58105 8.04376,3.34776 11.27655,5.06331 7.57108,4.19858 12.2046,7.90251 11.49706,9.55999 0,0 0,0 0,0 0,0 0,0 0,0 -0.004,0.01 -0.004,0.01 -0.004,0.01 0,0 10e-6,1e-5 -0.004,0.01 0,0 0,0 0,0 0,1e-5 0,1e-5 0,1e-5 -0.7482,1.64005 -6.62685,0.839 -14.78082,-1.70138 -3.42615,-0.99702 -7.24289,-2.24337 -11.27682,-3.56874 -1.06141,-0.34542 -2.11945,-0.69914 -3.17204,-1.04485 -2.13083,-0.69983 -4.12376,-1.3232 -6.00628,-1.77918 -2.06301,-0.46343 -3.57593,-0.98043 -4.75892,-1.1265 -0.19077,-0.11054 -0.45065,-0.15298 -0.65178,-0.12004 -1.14503,0.43534 -2.4873,1.25311 -3.97651,1.96036 -2.87002,1.32922 -5.32041,2.03015 -7.11361,2.27506 -1.79319,0.24491 -2.93401,0.0313 -3.25894,-0.61861 z"
         id="path6373"
         inkscape:path-effect="#path-effect6432"
         inkscape:original-d="m 275.73022,235.03219 c 15.71428,-7.85714 10,-9.28571 20.71428,-7.14285 10.71429,2.14285 34.28571,12.85714 34.28571,12.85714"
         inkscape:connector-curvature="0"
         sodipodi:nodetypes="csc" />
      <path
         style="fill:#ff7d7d;fill-opacity:1;fill-rule:evenodd;stroke:none"
         d="m 352.87307,245.0322 c 0.16419,-0.84831 1.69912,-1.36446 4.20035,-1.65747 1.25062,-0.14651 2.74066,-0.2401 4.40708,-0.33215 1.66643,-0.0921 3.50849,-0.18213 5.46223,-0.36266 2.74238,-0.28036 5.64459,-0.64835 8.10583,-1.75863 1.65656,-0.67514 3.30431,-1.79002 4.91535,-3.20069 0.28786,-0.25206 0.5715,-0.51067 0.85078,-0.7742 2.48576,-2.33509 4.62084,-5.17921 6.7427,-7.87548 3.00777,-4.53172 5.83317,-8.25065 8.1427,-10.74028 2.30953,-2.48963 4.10291,-3.74949 5.01477,-3.30621 0,0 1e-5,0 1e-5,0 0,0 0,0 0,0 0.0153,0.008 0.0153,0.008 0.0153,0.008 0,0 3e-5,-2e-5 0.0153,0.008 0,0 0,0 0,0 0,0 0,0 0,0 0.8904,0.48124 0.7684,2.61014 -0.19582,5.91252 -0.96422,3.30238 -2.77092,7.77872 -5.21805,12.89796 -1.81914,3.21524 -4.15925,6.82593 -7.5207,10.22719 -0.39341,0.39641 -0.80441,0.78468 -1.23283,1.16264 -2.39768,2.11525 -5.2087,3.77309 -8.20194,4.79551 -4.35623,1.37863 -8.359,1.37907 -11.64863,0.94226 -2.29412,-0.2907 -4.31981,-0.74449 -6.06614,-1.255 -1.74634,-0.5105 -3.21418,-1.07815 -4.39165,-1.63903 -2.35493,-1.12175 -3.56084,-2.20368 -3.39665,-3.05199 z"
         id="path6375"
         inkscape:path-effect="#path-effect6430"
         inkscape:original-d="m 352.87307,245.0322 c 22.14285,4.28571 28.57143,1.42856 38.57143,-13.57143 5.50439,-8.25658 9.28571,-16.42857 9.28571,-16.42857"
         inkscape:connector-curvature="0"
         sodipodi:nodetypes="csc" />
      <path
         style="fill:#ff7d7d;fill-opacity:1;fill-rule:evenodd;stroke:none"
         d="m 212.87307,314.31791 c -0.34723,0.0302 -0.70717,-0.16212 -1.07104,-0.57003 -0.36387,-0.40791 -0.73369,-1.03131 -1.06524,-1.88086 -0.33155,-0.84956 -0.62693,-1.92642 -0.77452,-3.25043 -0.1476,-1.32402 -0.14865,-2.89705 0.20171,-4.7251 0,0 0,0 0,0 0.24886,-1.19486 0.73509,-2.44431 1.53605,-3.64398 0.80095,-1.19966 1.91716,-2.34955 3.41434,-3.30266 2.45399,-1.34619 5.13033,-1.95778 7.45164,-2.00128 2.47826,-0.13638 4.89277,0.007 7.11625,0.14053 1.70418,0.14038 3.30512,0.45932 4.78071,0.87632 1.24539,0.35194 2.37199,0.76344 3.38895,1.17573 2.50398,0.94087 4.55071,1.84176 6.35734,2.30335 2.24298,0.61318 4.47166,0.73914 6.43564,0.5093 1.48622,-0.14873 2.88636,-0.49417 4.16709,-0.85918 1.28072,-0.36501 2.44118,-0.75032 3.44549,-1.04279 2.00862,-0.58494 3.39409,-0.77741 3.9013,-0.15749 0.50721,0.61992 0.10947,1.99404 -1.33625,3.82503 -0.72285,0.9155 -1.71573,1.93825 -3.03773,2.95896 -1.322,1.0207 -2.97455,2.04027 -5.02731,2.8753 -2.9268,1.12969 -6.52879,1.66478 -10.32775,1.11198 -2.88064,-0.44297 -5.58173,-1.32501 -7.99533,-2.18327 -0.98979,-0.32188 -1.91814,-0.64421 -2.78153,-0.90904 -1.02298,-0.31378 -1.92579,-0.5353 -2.73186,-0.58802 -2.40395,-0.2229 -4.4619,-0.52769 -6.25428,-0.61839 -1.68554,-6.5e-4 -2.90963,-0.10634 -3.64211,0.18622 -0.70171,-0.005 -1.49764,0.80001 -2.1255,1.66944 0,0 0,0 0,0 -0.5916,0.89941 -0.98712,1.90243 -1.32326,2.86245 -0.33615,0.96003 -0.61087,1.87689 -0.88743,2.65338 -0.55312,1.55299 -1.12091,2.52414 -1.81537,2.58453 z"
         id="path6377"
         inkscape:path-effect="#path-effect6428"
         inkscape:original-d="m 212.87307,314.31791 c -1.42857,-16.42857 7.14286,-15 16.42857,-14.28572 9.28572,0.71429 17.14286,10.71429 32.85714,-2.14285"
         inkscape:connector-curvature="0"
         sodipodi:nodetypes="csc" />
      <path
         style="fill:#650000;fill-opacity:1;fill-rule:evenodd;stroke:none"
         d="m 226.32848,507.91123 c 0.35057,0.0607 0.60487,0.47007 0.9803,0.97253 0.18771,0.25123 0.41052,0.52891 0.68858,0.80293 0.27806,0.27402 0.61308,0.54594 0.98629,0.76351 0.44928,0.30566 0.99266,0.57851 1.65622,0.83329 0.66356,0.25478 1.44882,0.49072 2.34214,0.77749 1.79154,0.52627 3.86637,0.96698 6.2495,1.29785 2.38313,0.33087 5.07755,0.5501 8.04865,0.7989 5.25534,0.38925 11.15788,0.57392 17.48166,0.51288 2.07534,-0.0265 4.16346,-0.0587 6.24493,-0.14192 2.68284,-0.1073 5.24909,-0.29882 7.68293,-0.64432 5.85752,-0.80634 11.36661,0.076 15.98446,1.72864 5.12659,1.85967 9.22077,4.43727 12.37579,6.92414 6.43763,6.42752 9.80497,10.76475 8.8896,11.76149 0,0 0,0 0,0 0,0 0,0 0,0 0,0 0,10e-6 0,10e-6 0,0 0,0 0,0 0,0 0,0 0,0 0,0 0,0 0,0 -0.006,0.006 -0.006,0.006 -0.006,0.006 0,0 0,1e-5 -0.006,0.006 0,0 0,0 0,0 0,0 0,0 0,0 0,1e-5 0,1e-5 0,1e-5 0,0 0,0 0,0 -10e-6,0 -10e-6,0 -10e-6,0 0,0 0,0 0,0 -0.94901,0.96923 -5.91863,-1.5108 -12.97616,-6.11849 -3.14364,-1.54016 -6.79825,-3.1215 -10.86192,-4.04431 -3.73397,-0.87601 -7.86213,-1.27545 -11.86178,-0.52446 -2.89074,0.49573 -5.84467,0.77646 -8.80882,0.90232 -2.29972,0.0976 -4.53568,0.10136 -6.69258,0.06 -6.70528,-0.10687 -13.03378,-0.75865 -18.60472,-1.82693 -3.05755,-0.56284 -6.01292,-1.27097 -8.66376,-2.17559 -2.65084,-0.90462 -4.99653,-2.00213 -6.93192,-3.19315 -0.99043,-0.58121 -1.92546,-1.27364 -2.71263,-2.02278 -0.78716,-0.74913 -1.42769,-1.55379 -1.89819,-2.34547 -0.4786,-0.79868 -0.70531,-1.58881 -0.78248,-2.27103 -0.0772,-0.68222 -0.006,-1.25837 0.12475,-1.69824 0.13088,-0.43987 0.32069,-0.74521 0.51184,-0.92778 0.19115,-0.18257 0.38336,-0.24377 0.55865,-0.21342 z"
         id="path6379"
         inkscape:path-effect="#path-effect6381"
         inkscape:original-d="m 226.32848,507.91123 c -1.9685,11.3705 38.58555,13.14057 53.13053,10.84262 19.51413,-3.08303 36.47488,15.55079 36.47488,15.55079"
         inkscape:connector-curvature="0"
         sodipodi:nodetypes="csc" />
      <path
         sodipodi:nodetypes="czc"
         inkscape:connector-curvature="0"
         inkscape:original-d="m 322.04276,569.3398 c 15.17436,18.51337 26.65529,5.69874 50.27339,-14.87166 23.6181,-20.5704 55.04631,11.26508 55.04631,11.26508"
         inkscape:path-effect="#path-effect6385"
         id="path6383"
         d="m 322.04276,569.3398 c 0.23255,-0.19061 0.66644,-0.12255 1.2894,0.1624 0.62296,0.28494 1.43613,0.79058 2.43287,1.4308 0.99675,0.64022 2.1768,1.42009 3.53292,2.14055 1.35611,0.72045 2.88708,1.38599 4.59655,1.61126 1.27054,0.21328 2.67872,0.19651 4.08332,-0.11163 1.37169,-0.28127 2.82969,-0.88923 4.38253,-1.69914 1.79227,-0.9316 3.59387,-2.14037 5.45392,-3.57499 1.86006,-1.43461 3.77904,-3.09521 5.83437,-4.85844 4.77342,-4.16328 9.8273,-8.90117 15.38366,-13.74285 0.0856,-0.0751 0.17173,-0.1498 0.25829,-0.22415 3.11508,-2.67573 6.70474,-4.76116 10.53104,-6.07532 3.732,-1.25632 7.52611,-1.72225 11.12062,-1.57879 3.99366,0.22139 7.6615,1.04922 10.95858,2.17866 3.29709,1.12943 6.22415,2.55956 8.78146,4.05836 5.60981,4.56992 10.04611,8.44887 12.93921,11.32409 2.8931,2.87522 4.24368,4.74719 3.74453,5.34839 0,10e-6 0,10e-6 0,10e-6 0,0 0,0 0,0 0,0 0,0 0,0 0,0 0,0 0,0 0,0 0,0 0,0 0,0 0,0 0,0 0,0 0,0 0,0 -1e-5,0 -1e-5,0 -1e-5,0 0,0 0,10e-6 0,10e-6 0,0 0,0 0,0 -0.004,0.004 -0.004,0.004 -0.004,0.004 0,0 0,1e-5 -0.004,0.004 0,0 0,0 0,0 0,0 0,0 0,0 0,0 0,0 0,0 0,0 0,0 0,0 0,0 0,0 0,0 0,0 0,0 0,0 0,0 0,0 0,0 0,10e-6 -1e-5,10e-6 -1e-5,10e-6 0,0 0,0 0,0 0,0 0,0 0,0 -0.51626,0.58897 -2.81806,-0.14999 -6.41647,-1.91529 -3.59842,-1.76531 -8.49278,-4.55646 -14.25667,-8.11713 -2.37069,-0.95604 -4.92285,-1.85537 -7.59383,-2.50331 -2.67099,-0.64794 -5.46016,-1.04407 -8.28611,-0.92104 -2.58733,0.0543 -5.23428,0.4863 -7.70959,1.41599 -2.55076,0.93163 -5.034,2.45074 -7.30739,4.38029 -0.0632,0.0536 -0.1261,0.10749 -0.1888,0.1616 -5.43655,4.73269 -10.73644,9.40216 -15.98676,13.46771 -2.18678,1.71926 -4.44596,3.38934 -6.77688,4.85353 -2.33091,1.4642 -4.73312,2.72224 -7.17061,3.68697 -2.2064,0.87547 -4.54752,1.42892 -6.86244,1.56791 -2.46418,0.13288 -4.76357,-0.29379 -6.74108,-1.06116 -2.4704,-1.03673 -4.29812,-2.3849 -5.70128,-3.70134 -1.40315,-1.31644 -2.38203,-2.60597 -3.07765,-3.7068 -0.69562,-1.10083 -1.10728,-2.01799 -1.30201,-2.69568 -0.19473,-0.67768 -0.17108,-1.11925 0.0615,-1.30986 z"
         style="fill:#650000;fill-opacity:1;fill-rule:evenodd;stroke:none" />
      <path
         sodipodi:nodetypes="czc"
         inkscape:connector-curvature="0"
         inkscape:original-d="m 178.58735,418.60363 c 0,0 1.42857,-12.14286 12.85714,-20 11.42858,-7.85714 19.28572,-25 19.28572,-25"
         inkscape:path-effect="#path-effect6389"
         id="path6387"
         d="m 178.58736,418.60356 c -0.0873,-0.0115 -0.1726,-0.036 -0.25536,-0.0736 0,0 0,0 0,0 -0.0791,-0.036 -0.15588,-0.0843 -0.23,-0.14425 0,0 0,0 0,0 0,0 0,0 0,0 0,0 0,0 0,0 -0.14677,-0.11993 -0.28261,-0.28941 -0.40492,-0.50224 0,0 0,0 0,0 0,0 0,0 0,0 -0.24052,-0.41863 -0.42727,-1.01989 -0.53553,-1.77045 0,0 0,0 0,0 -0.20952,-1.45278 -0.12255,-3.51915 0.48823,-5.95386 0,0 0,0 0,0 0.59752,-2.37707 1.71353,-5.11858 3.51625,-7.86455 1.80273,-2.74597 4.2984,-5.49011 7.4706,-7.77518 0.84757,-0.5971 1.68702,-1.24927 2.52002,-1.95385 2.12486,-1.79726 4.04789,-3.7937 5.83882,-5.76979 1.79094,-1.9761 3.4487,-3.92788 4.97745,-5.66559 3.95327,-5.18268 7.30446,-8.24033 8.746,-7.53229 0,0 0,0 0,0 0,0 0,0 0,0 0,0 0,0 0,0 0,0 0,0 0,0 0,0 0,0 0,0 0,0 0,0 0,0 0,0 0,0 0,0 0,0 0,0 0,0 0,0 0,0 0,0 0.0113,0.006 0.0113,0.006 0.0113,0.006 0,0 1e-5,-1e-5 0.0112,0.006 0,0 0,0 0,0 0,0 0,0 0,0 0,0 0,0 0,0 0,0 0,0 0,0 0,0 0,0 0,0 0,0 0,0 0,0 0,0 0,0 1e-5,0 0,0 0,0 0,0 0,0 0,0 0,0 1.41957,0.74721 0.56949,5.1802 -1.98626,11.60273 -1.04606,2.25835 -2.42899,4.76729 -4.25016,7.33136 -1.82118,2.56408 -4.08533,5.18198 -6.86267,7.55905 -1.0888,0.93188 -2.22229,1.79684 -3.39003,2.58526 -2.34552,1.50837 -4.38346,3.2715 -6.111,5.04973 -1.72754,1.77823 -3.14375,3.57143 -4.31608,5.17049 0,0 0,0 0,0 -1.21388,1.66455 -2.17716,3.09553 -3.00085,4.11499 0,0 0,0 0,0 -0.42573,0.52734 -0.81262,0.93314 -1.17585,1.20654 0,0 0,0 0,0 0,0 0,0 0,0 -0.1847,0.13904 -0.36284,0.2401 -0.53655,0.30413 0,0 0,0 0,0 0,0 0,0 0,0 0,0 0,0 0,0 -0.0877,0.0329 -0.17417,0.0553 -0.25963,0.0674 0,0 0,0 0,0 -0.0894,0.0126 -0.1777,0.014 -0.26503,0.002 z"
         style="fill:#ff7d7d;fill-opacity:1;fill-rule:evenodd;stroke:none" />
      <path
         inkscape:connector-curvature="0"
         inkscape:original-d="m 560.01592,364.31791 c -10.71428,-10 -22.14285,-11.42857 -22.14285,-11.42857"
         inkscape:path-effect="#path-effect6393"
         id="path6391"
         d="m 560.01592,364.31791 c -0.9416,1.00886 -2.78585,0.95875 -5.00444,0.34861 -2.21859,-0.61014 -4.83032,-1.76479 -7.58274,-3.20634 -1.48633,-0.77844 -2.86883,-1.5682 -4.11088,-2.35688 0,0 0,0 0,0 -1.7045,-1.07941 -3.11118,-2.14901 -4.09363,-3.19786 0,0 0,0 0,0 -0.48007,-0.51223 -0.84188,-1.01805 -1.07814,-1.51999 0,0 0,0 0,0 -0.11734,-0.24926 -0.19885,-0.497 -0.24632,-0.74401 0,0 0,0 0,0 0,0 0,0 0,0 -0.0218,-0.12299 -0.0352,-0.24581 -0.0404,-0.36858 0,0 0,0 0,0 0,0 0,0 0,0 0,0 0,0 0,0 0.0241,-0.35525 0.015,-0.38181 0.0137,-0.38342 0,0 0,0 0,0 0,0 0,0 0,0 0,0 0,0 0,0 -8e-5,-10e-5 -6e-5,-10e-5 -6e-5,-10e-5 0,0 -2e-5,0 8e-5,-9e-5 0,0 0,0 0,0 0,0 0,0 0,0 0,0 0,0 0,0 0.002,-0.001 0.017,-0.0247 0.0859,-0.37379 0,0 0,0 0,0 0,0 0,0 0,0 0,0 0,0 0,0 0.0405,-0.11647 0.0945,-0.22976 0.16064,-0.33955 0,0 0,0 0,0 0,0 0,0 0,0 0.12883,-0.22055 0.30665,-0.42713 0.52474,-0.61727 0,0 0,0 0,0 0.43923,-0.38285 1.06167,-0.6965 1.8161,-0.91888 0,0 0,0 0,0 1.5456,-0.45532 3.71865,-0.51366 6.11139,-0.0218 0,0 0,0 0,0 1.75543,0.36081 3.64528,1.01715 5.49346,1.98409 1.71127,0.8953 3.22068,1.96914 4.46115,3.0993 1.24047,1.13016 2.2126,2.31509 2.89136,3.43462 0.67876,1.11953 1.06545,2.1724 1.16258,3.06211 0.0971,0.8897 -0.0937,1.61543 -0.56453,2.11986 z"
         style="fill:#ff7d7d;fill-opacity:1;fill-rule:evenodd;stroke:none" />
      <path
         sodipodi:nodetypes="czc"
         inkscape:connector-curvature="0"
         inkscape:original-d="m 466.4786,520.47831 c 19.46007,-35.77235 40.94101,-25.01555 55.27338,-35.58595 14.33237,-10.5704 11.47489,-28.02064 11.47489,-28.02064"
         inkscape:path-effect="#path-effect6385-1"
         id="path6383-6"
         d="m 466.4786,520.47831 c -0.39992,-0.21756 -0.50011,-0.96734 -0.29437,-2.1854 0.20575,-1.21806 0.71716,-2.90605 1.59883,-4.9616 0.88166,-2.05554 2.13404,-4.48086 3.87941,-7.10379 1.74537,-2.62293 3.98546,-5.44461 6.88414,-8.19655 2.06892,-1.93509 4.45961,-3.7651 7.13988,-5.38014 2.68027,-1.61504 5.65,-3.0145 8.83665,-4.09967 2.99071,-1.00765 6.02937,-1.7404 9.00388,-2.39211 1.77834,-0.38963 3.48983,-0.74377 5.12151,-1.11291 4.13249,-1.00941 7.73617,-2.07839 10.34173,-3.89839 2.98754,-1.99756 5.3854,-4.48217 7.11983,-7.03152 0,0 0,0 0,0 1.78656,-2.60374 2.95671,-5.32979 3.79316,-7.74406 0,0 0,0 0,0 0.90776,-2.63706 1.4219,-4.90423 1.86302,-6.55311 0,0 0,0 0,0 0.23542,-0.88184 0.44894,-1.5794 0.67442,-2.07856 0,0 0,0 0,0 0.11625,-0.25739 0.23613,-0.45866 0.36322,-0.60439 0,0 0,0 0,0 0,0 0,0 0,0 0.0647,-0.0725 0.13123,-0.1308 0.20004,-0.175 0,0 0,0 0,0 0,0 0,0 0,0 0.10883,-0.0345 0.16473,-0.0566 0.19325,-0.0702 0.0279,-0.0133 0.0296,-0.0184 0.0297,-0.0192 0,0 0,0 0,0 0,0 0,0 0,0 0,0 0,0 0,0 0,0 0,0 0,0 0,0 0,0 0,0 0,0 0,0 0,0 0,0 0,0 0,0 0,0 0,0 0,0 0,0 0,0 0,0 0,0 0,0 0,0 10e-6,-7e-5 10e-6,-5e-5 10e-6,-5e-5 0,0 0,-2e-5 2e-5,4e-5 0,0 0,0 0,0 0,0 0,0 0,0 0,0 0,0 0,0 0,0 0,0 0,0 0,0 0,0 0,0 0,0 0,0 0,0 0,0 0,0 0,0 0,0 0,0 0,0 0,0 0,0 0,0 0,0 0,0 0,0 3.1e-4,6.8e-4 0.004,0.005 0.0342,0.009 0.0313,0.004 0.0912,0.008 0.20515,0.008 0,0 0,0 0,0 0,0 0,0 0,0 0.0789,0.024 0.15994,0.0664 0.2423,0.12657 0,0 0,0 0,0 0,0 0,0 0,0 0.16193,0.11577 0.3292,0.30016 0.49611,0.54805 0,0 0,0 0,0 0.32375,0.48088 0.64917,1.21394 0.92868,2.17488 0,0 0,0 0,0 0.52358,1.79818 0.90841,4.44467 0.68548,7.75776 0,0 0,0 0,0 -0.2029,3.05522 -0.94835,6.70222 -2.75595,10.51466 0,0 0,0 0,0 -1.79725,3.7553 -4.64021,7.53732 -8.54912,10.62603 -2.004,1.52881 -4.2036,2.78199 -6.49945,3.7809 -2.29585,0.99892 -4.68738,1.74366 -7.05154,2.29912 -1.77962,0.44717 -3.55437,0.83751 -5.30079,1.21766 -2.92114,0.63584 -5.63935,1.22478 -8.1087,1.9834 -5.20873,1.57632 -9.79233,3.95893 -13.48125,6.677 -2.68544,1.94853 -4.97609,4.05569 -6.96484,6.04271 -1.98874,1.98703 -3.67491,3.85382 -5.10433,5.40068 -1.42942,1.54687 -2.60155,2.77545 -3.52511,3.5526 -0.92356,0.77714 -1.59917,1.10483 -1.99909,0.88727 z"
         style="fill:#650000;fill-opacity:1;fill-rule:evenodd;stroke:none" />
      <path
         sodipodi:nodetypes="csc"
         inkscape:connector-curvature="0"
         inkscape:original-d="m 422.15879,560.74648 c 29.99999,19.28572 42.70063,8.57144 42.14285,-7.14285 -0.3809,-10.73131 -1.42857,-27.85715 -1.42857,-27.85715"
         inkscape:path-effect="#path-effect6418"
         id="path6416"
         d="m 422.15879,560.74648 c 0.25401,-0.39512 0.95466,-0.48224 2.03543,-0.31533 1.08077,0.16691 2.54239,0.5896 4.32444,1.17565 1.78204,0.58604 3.88402,1.33707 6.25044,2.09478 2.36641,0.75771 4.99612,1.52213 7.8514,2.05559 1.82339,0.30068 3.70198,0.55912 5.50601,0.6039 1.80404,0.0448 3.53217,-0.12462 5.03586,-0.75081 1.28771,-0.44459 2.53641,-1.28622 3.51888,-2.37673 0.43525,-0.4831 0.80956,-1.00601 1.10704,-1.55095 1.30812,-2.14051 1.69505,-5.01931 1.80127,-7.87451 -0.145,-16.18967 1.10546,-27.90025 3.27264,-28.06093 0,0 0,0 0,0 0,0 0,0 0,0 0.0109,-6.8e-4 0.0109,-6.6e-4 0.0109,-6.6e-4 0,0 1e-5,-2e-5 0.0109,-5.6e-4 0,0 0,0 0,0 1e-5,0 1e-5,0 1e-5,0 2.17114,-0.0832 4.61374,11.4528 6.12977,27.65327 0.34871,3.9764 -0.18221,8.57379 -2.46025,13.04067 -0.67709,1.2507 -1.50184,2.42003 -2.45805,3.47987 -2.15845,2.39239 -4.90019,4.12552 -7.87904,5.07013 -3.0509,0.85679 -5.97439,1.03064 -8.64977,0.8097 -2.67539,-0.22094 -5.10309,-0.83508 -7.23052,-1.60394 -3.33018,-1.14104 -6.17304,-2.54705 -8.55885,-3.96799 -2.38581,-1.42093 -4.31636,-2.85727 -5.81622,-4.14778 -1.49986,-1.29052 -2.56986,-2.43708 -3.20901,-3.34859 -0.63915,-0.91151 -0.84723,-1.58966 -0.59322,-1.98478 z"
         style="fill:#650000;fill-opacity:1;fill-rule:evenodd;stroke:none" />
      <path
         sodipodi:nodetypes="csc"
         inkscape:connector-curvature="0"
         inkscape:original-d="m 525.01592,435.74649 c 4.28572,-31.42859 6.74306,-29.07959 24.28572,-46.42858 13.66544,-13.51457 12.14286,-17.85714 12.14286,-17.85714"
         inkscape:path-effect="#path-effect6422"
         id="path6420"
         d="m 525.01592,435.74649 c -0.89573,-0.12214 -1.50323,-2.04869 -1.76186,-5.36111 -0.12931,-1.65622 -0.16847,-3.66126 -0.0673,-5.96808 0.10114,-2.30682 0.34232,-4.91634 0.81905,-7.77127 0.58312,-3.59617 1.66689,-7.72804 4.01711,-11.92029 1.68301,-2.87626 3.80177,-5.43565 6.04083,-7.69555 0.38325,-0.38682 0.76626,-0.7617 1.14719,-1.12563 3.8499,-3.73625 7.6074,-6.93102 10.90541,-9.80752 0,0 0,0 0,0 2.88071,-2.58488 5.46912,-4.74719 7.52918,-6.68505 2.06005,-1.93786 3.61189,-3.65321 4.81369,-5.03338 0,0 0,0 0,0 0.42366,-0.50125 0.80117,-0.89543 1.11776,-1.24057 0.3166,-0.34514 0.57525,-0.64084 0.80523,-0.89623 0,0 0,0 0,0 0.2004,-0.22037 0.38476,-0.37038 0.55552,-0.50378 0,0 0,0 0,0 0,0 0,0 0,0 0.0857,-0.0499 0.169,-0.0958 0.24997,-0.14362 0,0 0,0 0,0 0,0 0,0 0,0 0.24209,-0.10435 0.25617,-0.13027 0.25675,-0.13343 5e-5,-2.7e-4 7e-5,-2.1e-4 7e-5,-2.1e-4 0,0 -2e-5,-6e-5 1.9e-4,1.3e-4 0.002,0.002 0.0291,0.0144 0.28673,-0.0179 0,0 0,0 0,0 0,0 0,0 0,0 0.0971,0.0268 0.19966,0.0919 0.29957,0.18884 0,0 0,0 0,0 0,0 0,0 0,0 0.20053,0.17316 0.39095,0.48687 0.51984,0.8678 0,0 0,0 0,0 0.14838,0.43086 0.2392,0.99728 0.23692,1.65712 -0.002,0.65984 -0.10063,1.41317 -0.28072,2.16779 0,0 0,0 0,0 -0.46763,2.09241 -1.52952,4.73608 -3.25458,7.55191 -1.72505,2.81584 -4.12329,5.78522 -6.7655,8.66228 0,0 0,0 0,0 -3.08043,3.43153 -6.66364,6.91529 -10.28014,10.50033 -0.33998,0.34296 -0.67773,0.68414 -1.01137,1.02426 -1.94925,1.98707 -3.64015,3.8344 -4.84349,5.71559 -1.819,2.67972 -2.99173,5.87134 -4.05441,8.92059 -0.84572,2.48486 -1.56958,4.82531 -2.24137,6.9232 -0.6718,2.09789 -1.29085,3.95256 -1.88239,5.47748 -1.18308,3.04984 -2.26213,4.7684 -3.15786,4.64626 z"
         style="fill:#650000;fill-opacity:1;fill-rule:evenodd;stroke:none" />
      <path
         sodipodi:nodetypes="csc"
         inkscape:connector-curvature="0"
         inkscape:original-d="m 184.30163,434.31791 c 0,0 23.62004,6.58536 38.57143,10 27.38166,6.25351 20.71429,31.42858 20.71429,31.42858"
         inkscape:path-effect="#path-effect6426"
         id="path6424"
         d="m 184.30166,434.31792 c 0.39544,-1.45429 6.0555,-1.31641 14.67665,0.0775 0,0 0,0 0,0 6.86285,1.07443 15.5674,2.93418 25.00744,5.05043 0.47707,0.10073 0.95628,0.21159 1.4368,0.33304 2.98583,0.75463 5.88283,1.88888 8.51724,3.37621 2.63441,1.48733 5.00495,3.32718 6.99725,5.43524 0,1e-5 0,1e-5 0,1e-5 0,0 0,0 0,0 1.85995,2.04192 3.25395,4.25522 4.25055,6.45492 0.9966,2.1997 1.59681,4.38543 1.89942,6.42487 0,0 0,0 0,0 0.32334,2.20787 0.33048,4.21531 0.16774,5.96248 -0.16273,1.74717 -0.4948,3.23511 -0.88348,4.44141 0,0 0,0 0,0 -0.42523,1.32668 -0.92445,2.32987 -1.40166,2.97959 0,0 0,0 0,0 -0.24899,0.33895 -0.49399,0.58689 -0.72373,0.73654 0,0 0,0 0,0 0,0 0,0 0,0 -0.11772,0.0785 -0.23147,0.13137 -0.3399,0.15749 0,-1e-5 0,-1e-5 0,-1e-5 0,0 0,0 0,0 -0.15164,-0.0127 -0.23151,-0.0134 -0.2732,-0.0106 0,0 0,0 0,0 -0.0411,0.003 -0.0451,0.009 -0.0454,0.009 0,0 0,0 0,0 0,0 0,0 0,0 0,0 0,0 0,0 0,0 0,0 0,0 0,0 0,0 0,0 0,0 0,0 0,0 0,0 0,0 0,0 0,0 0,0 0,0 0,0 0,0 0,0 0,0 0,0 0,0 -2e-5,4e-5 -2e-5,3e-5 -2e-5,3e-5 0,0 0,1e-5 0,-3e-5 0,0 0,0 0,0 0,0 0,0 0,0 0,0 0,0 0,0 0,0 0,0 0,0 0,0 0,0 0,0 0,0 0,0 0,0 0,0 0,0 0,0 0,0 0,0 0,0 0,0 0,0 0,0 0,0 0,0 0,0 6e-5,-7.3e-4 -4.2e-4,-0.008 -0.0352,-0.03 0,0 0,0 0,0 -0.0353,-0.0224 -0.1058,-0.0601 -0.24542,-0.12167 0,0 0,0 0,0 0,0 0,-10e-6 0,-10e-6 -0.0846,-0.0707 -0.16406,-0.16107 -0.23908,-0.27122 0,0 0,0 0,0 0,0 0,0 0,0 -0.14599,-0.22038 -0.27481,-0.5174 -0.39306,-0.89097 0,0 0,0 0,0 -0.22668,-0.71573 -0.41817,-1.69474 -0.64101,-2.9046 0,0 0,0 0,0 -0.40947,-2.19802 -0.90212,-5.14777 -2.13068,-8.27076 0,0 0,0 0,0 -1.10729,-2.80567 -2.88398,-5.8218 -5.52971,-8.12635 0,0 0,0 0,0 0,0 0,0 0,0 -1.38504,-1.28134 -3.07243,-2.38233 -5.0137,-3.31486 -1.94127,-0.93253 -4.13591,-1.69757 -6.47044,-2.33178 -0.3757,-0.10207 -0.75215,-0.20004 -1.12867,-0.29425 -9.66819,-2.24774 -18.24083,-5.01173 -24.74581,-7.50209 0,0 0,0 -10e-6,0 -8.15519,-3.16771 -13.10832,-5.91565 -12.71289,-7.36994 z"
         style="fill:#650000;fill-opacity:1;fill-rule:evenodd;stroke:none" />
    </g>
  </g>
</svg>
